<svg xmlns="http://www.w3.org/2000/svg" width="250" height="145.173" viewBox="0 0 250 145.173">
  <g id="logo-cpd" transform="translate(-114.351 -173.589)">
    <path id="Path_1" data-name="Path 1" d="M294.29,456.366l-48.944-16.5s-8.938,13.8-11.046,17.035-.025,4.619,1.922,4.652c.985.015,20.262.2,39.1.39a46.675,46.675,0,0,0,18.965-5.577" transform="translate(-86.188 -192.744)" fill="#68991d"/>
    <path id="Path_2" data-name="Path 2" d="M321.783,408.319l-49.739-30.13s-5.142,6.23-6.905,8.427-.746,4.321.968,4.947c1.17.422,32.671,11.777,52.537,18.941,1.066-.675,2.117-1.4,3.14-2.184" transform="translate(-108.48 -148.099)" fill="#d8c000"/>
    <path id="Path_3" data-name="Path 3" d="M342.422,366.416l-44.534-41.547s-6.2,4.761-8.89,6.814-1.374,3.967.382,5.107c1.267.817,32.988,20.6,50.78,31.687q1.155-.978,2.263-2.06" transform="translate(-125.308 -109.504)" fill="#d8c000"/>
    <path id="Path_4" data-name="Path 4" d="M375.838,318.088c-10.846-16.016-30.742-45.413-32.453-48.027a24.675,24.675,0,0,1-3.1-6.321s-7.881,6.727-10.325,8.818-1.179,5.131-.16,6.139c.748.744,28.955,27.8,43.777,42.021q1.166-1.251,2.259-2.63" transform="translate(-155.049 -65.255)" fill="#f18614"/>
    <path id="Path_5" data-name="Path 5" d="M417.759,283.783q.882-1.256,1.705-2.6c-7.673-17.039-21.724-48.252-23.469-52.2a17.636,17.636,0,0,1-1.552-9.77s-2.341,1.9-7.582,5.653c-5.076,3.626-.932,9.162-.932,9.162Z" transform="translate(-195.427 -33.02)" fill="#f18614"/>
    <path id="Path_6" data-name="Path 6" d="M455.981,256.916q1.193-2.244,2.226-4.741c-4.412-17.308-11.928-46.834-12.724-50.014-1.827-7.306,3.192-13.111,3.192-13.111s-8.752,4.8-12.986,7.53c-4.115,2.657-2.816,7.287-1.742,9.777.786,1.822,14.644,33.623,22.033,50.56" transform="translate(-230.558 -11.191)" fill="#d10022"/>
    <path id="Path_7" data-name="Path 7" d="M499.951,239.959a70.933,70.933,0,0,0,2.775-11.87c-1.507-14.431-3.411-32.726-3.953-38.084-.932-9.244,2.712-12.405,2.712-12.405a102.217,102.217,0,0,0-9.087,5.851c-3.98,2.937-4.441,7.753-3.374,12.181.732,3.041,7.044,28.6,10.928,44.326" transform="translate(-270.848 -2.903)" fill="#d10022"/>
    <path id="Path_8" data-name="Path 8" d="M538.349,218.165l3.6-.013-.812-44.563s-.526.672-3.2,4.2-2.759,6.157-2.461,9.874c.166,2.037,1.605,17.216,2.874,30.5" transform="translate(-304.743)" fill="#9a0067"/>
    <path id="Path_9" data-name="Path 9" d="M574.173,218.176c1.269-13.29,2.71-28.474,2.874-30.511.3-3.716.22-6.343-2.461-9.874s-3.2-4.2-3.2-4.2l-.815,44.607Z" transform="translate(-330.231)" fill="#9a0067"/>
    <path id="Path_10" data-name="Path 10" d="M593.862,190.005c-.542,5.344-2.437,23.567-3.94,37.984a71.874,71.874,0,0,0,2.776,11.927c3.887-15.736,10.187-41.243,10.918-44.283,1.067-4.428.608-9.246-3.374-12.179a101.869,101.869,0,0,0-9.089-5.853s3.646,3.161,2.71,12.405" transform="translate(-344.24 -2.903)" fill="#592472"/>
    <path id="Path_11" data-name="Path 11" d="M617.957,202.162c-.8,3.178-8.307,32.658-12.713,49.972q1.027,2.5,2.228,4.754c7.388-16.944,21.236-48.709,22.021-50.531,1.072-2.491,2.373-7.124-1.742-9.777-4.233-2.728-12.988-7.531-12.988-7.531s5.022,5.8,3.194,13.113" transform="translate(-355.331 -11.191)" fill="#2b448c"/>
    <path id="Path_12" data-name="Path 12" d="M618.316,281.151c.551.9,1.119,1.771,1.709,2.61l31.816-49.741s4.144-5.535-.93-9.164c-5.242-3.745-7.582-5.651-7.582-5.651a17.676,17.676,0,0,1-1.554,9.772c-1.744,3.946-15.783,35.13-23.458,52.174" transform="translate(-364.793 -33.019)" fill="#2b448c"/>
    <path id="Path_13" data-name="Path 13" d="M675.945,272.559c-2.444-2.091-10.323-8.818-10.323-8.818a24.7,24.7,0,0,1-3.1,6.319c-1.709,2.615-21.593,31.992-32.442,48.009q1.094,1.384,2.262,2.637c14.828-14.227,43.009-41.267,43.764-42.008,1.021-1.01,2.282-4.051-.162-6.139" transform="translate(-373.309 -65.256)" fill="#0c8cd0"/>
    <path id="Path_14" data-name="Path 14" d="M696.8,331.679c-2.688-2.053-8.889-6.814-8.889-6.814L643.383,366.4q1.111,1.081,2.266,2.064c17.8-11.093,49.5-30.862,50.767-31.677,1.758-1.141,3.069-3.058.379-5.109" transform="translate(-383.938 -106.501)" fill="#0c8cd0"/>
    <path id="Path_15" data-name="Path 15" d="M713.842,386.612c-1.767-2.195-6.909-8.427-6.909-8.427l-49.721,30.121q1.537,1.179,3.142,2.188c19.867-7.162,51.352-18.511,52.517-18.936,1.715-.626,2.736-2.752.972-4.947" transform="translate(-392.948 -148.096)" fill="#68991d"/>
    <path id="Path_16" data-name="Path 16" d="M736.021,456.9c-2.1-3.234-11.042-17.035-11.042-17.035l-48.926,16.5a46.629,46.629,0,0,0,18.965,5.579c18.835-.182,38.1-.369,39.083-.386,1.949-.035,4.024-1.419,1.92-4.654" transform="translate(-406.586 -192.743)" fill="#68991d"/>
    <path id="Path_17" data-name="Path 17" d="M555.945,343.989H544.832l5.955,17.2Z" transform="translate(-311.602 -123.344)" fill="#68991d"/>
    <path id="Path_18" data-name="Path 18" d="M488.169,519.9c-18.262,0-30.118-9.608-29.645-10.314a1.536,1.536,0,0,1,2.137-.419c7.355,4.934,17.121,7.653,27.508,7.653,10.287,0,19.989-2.673,27.32-7.529a1.54,1.54,0,0,1,2.133.435c.468.708-11.191,10.174-29.453,10.174" transform="translate(-249.119 -242.715)" fill="#68991d"/>
    <path id="Path_19" data-name="Path 19" d="M114.351,602.092a8.712,8.712,0,0,1,.515-2.918,8.074,8.074,0,0,1,1.5-2.6,7.715,7.715,0,0,1,2.413-1.865,7.167,7.167,0,0,1,3.261-.721,6.654,6.654,0,0,1,3.706,1,6.265,6.265,0,0,1,2.288,2.55l-.961.548a5.479,5.479,0,0,0-1.017-1.418,5.412,5.412,0,0,0-1.26-.927,5.6,5.6,0,0,0-1.407-.515,6.8,6.8,0,0,0-1.441-.158,5.787,5.787,0,0,0-2.745.628,6.506,6.506,0,0,0-2.015,1.636,7.132,7.132,0,0,0-1.247,2.277,8.021,8.021,0,0,0-.424,2.552,7.7,7.7,0,0,0,1.878,5.045,6.65,6.65,0,0,0,2.057,1.589,5.657,5.657,0,0,0,2.564.6,6.608,6.608,0,0,0,1.511-.184,5.867,5.867,0,0,0,1.487-.571,6.049,6.049,0,0,0,1.327-1,5.29,5.29,0,0,0,1.03-1.43l1.006.481a5.427,5.427,0,0,1-1.121,1.627,7.05,7.05,0,0,1-1.58,1.189,7.41,7.41,0,0,1-1.842.721,7.856,7.856,0,0,1-1.911.242,6.439,6.439,0,0,1-3.054-.733,8.083,8.083,0,0,1-2.391-1.911,8.886,8.886,0,0,1-1.567-2.677,8.659,8.659,0,0,1-.561-3.054" transform="translate(0 -304.307)"/>
    <path id="Path_20" data-name="Path 20" d="M178.54,610.382a6.711,6.711,0,0,1-3.089-.71,7.927,7.927,0,0,1-2.4-1.853,8.3,8.3,0,0,1-1.558-2.632,8.763,8.763,0,0,1-.548-3.043,8.483,8.483,0,0,1,.583-3.112,8.708,8.708,0,0,1,1.6-2.632,7.669,7.669,0,0,1,2.413-1.818,6.824,6.824,0,0,1,3.019-.677,6.7,6.7,0,0,1,3.1.722,7.772,7.772,0,0,1,2.4,1.887,8.751,8.751,0,0,1,1.545,2.643,8.607,8.607,0,0,1-1.636,8.742,7.726,7.726,0,0,1-2.415,1.805,6.826,6.826,0,0,1-3.019.677m-6.43-8.237a7.8,7.8,0,0,0,.47,2.688,7.251,7.251,0,0,0,1.327,2.29,6.543,6.543,0,0,0,2.049,1.589,5.736,5.736,0,0,0,2.606.594,5.591,5.591,0,0,0,2.644-.617,6.467,6.467,0,0,0,2.013-1.634,7.755,7.755,0,0,0,1.27-7.6,7.4,7.4,0,0,0-1.339-2.29,6.635,6.635,0,0,0-2.024-1.589,5.542,5.542,0,0,0-2.564-.6,5.68,5.68,0,0,0-2.654.617,6.554,6.554,0,0,0-2.037,1.636,7.541,7.541,0,0,0-1.305,2.3,7.729,7.729,0,0,0-.457,2.608" transform="translate(-40.964 -304.245)"/>
    <path id="Path_21" data-name="Path 21" d="M237.4,610.57V594.323h1.167v15.194h9.7v1.054Z" transform="translate(-89.066 -304.547)"/>
    <path id="Path_22" data-name="Path 22" d="M285.34,610.382a6.711,6.711,0,0,1-3.089-.71,7.927,7.927,0,0,1-2.4-1.853,8.3,8.3,0,0,1-1.558-2.632,8.765,8.765,0,0,1-.55-3.043,8.484,8.484,0,0,1,.584-3.112,8.709,8.709,0,0,1,1.6-2.632,7.669,7.669,0,0,1,2.413-1.818,6.824,6.824,0,0,1,3.019-.677,6.7,6.7,0,0,1,3.1.722,7.772,7.772,0,0,1,2.4,1.887,8.751,8.751,0,0,1,1.545,2.643,8.607,8.607,0,0,1-1.636,8.742,7.723,7.723,0,0,1-2.415,1.805,6.824,6.824,0,0,1-3.019.677m-6.43-8.237a7.8,7.8,0,0,0,.47,2.688,7.251,7.251,0,0,0,1.327,2.29,6.54,6.54,0,0,0,2.049,1.589,5.736,5.736,0,0,0,2.606.594,5.591,5.591,0,0,0,2.644-.617,6.473,6.473,0,0,0,2.013-1.634,7.757,7.757,0,0,0,1.27-7.6,7.4,7.4,0,0,0-1.339-2.29,6.635,6.635,0,0,0-2.024-1.589,5.542,5.542,0,0,0-2.564-.6,5.68,5.68,0,0,0-2.654.617,6.554,6.554,0,0,0-2.037,1.636,7.536,7.536,0,0,0-1.305,2.3,7.729,7.729,0,0,0-.457,2.608" transform="translate(-118.269 -304.245)"/>
    <path id="Path_23" data-name="Path 23" d="M350.058,609.608a5.454,5.454,0,0,0,2.734-.619,4.765,4.765,0,0,0,1.718-1.622,6.976,6.976,0,0,0,.892-2.29,12.839,12.839,0,0,0,.262-2.586v-8.168h1.169v8.168a13.449,13.449,0,0,1-.355,3.112,7.5,7.5,0,0,1-1.156,2.621,5.736,5.736,0,0,1-2.084,1.8,7.888,7.888,0,0,1-6.406-.034,5.8,5.8,0,0,1-2.093-1.853,7.58,7.58,0,0,1-1.121-2.621,13.569,13.569,0,0,1-.333-3.021v-8.168h1.168v8.168a13.07,13.07,0,0,0,.262,2.632,6.5,6.5,0,0,0,.915,2.279,4.907,4.907,0,0,0,1.729,1.6,5.435,5.435,0,0,0,2.7.606" transform="translate(-165.712 -304.547)"/>
    <path id="Path_24" data-name="Path 24" d="M406.839,610.573V594.327h6.749a4.193,4.193,0,0,1,1.9.433,4.888,4.888,0,0,1,1.5,1.156,5.545,5.545,0,0,1,.985,1.625,4.937,4.937,0,0,1,.353,1.818,5.476,5.476,0,0,1-.273,1.729,5.144,5.144,0,0,1-.777,1.5,4.345,4.345,0,0,1-1.214,1.1,4.226,4.226,0,0,1-1.556.573l4.051,6.315H417.2l-3.937-6.132h-5.262v6.132Zm1.167-7.207h5.7a2.964,2.964,0,0,0,1.42-.344,3.662,3.662,0,0,0,1.1-.9,4.007,4.007,0,0,0,.7-1.281,4.6,4.6,0,0,0,.242-1.478,4.024,4.024,0,0,0-.288-1.5,4.189,4.189,0,0,0-.777-1.27,3.877,3.877,0,0,0-1.145-.881,3.075,3.075,0,0,0-1.407-.333h-5.536Z" transform="translate(-211.716 -304.55)"/>
    <path id="Path_25" data-name="Path 25" d="M481.907,610.573V594.327h6.681a4.193,4.193,0,0,1,1.9.433,4.872,4.872,0,0,1,1.5,1.156,5.552,5.552,0,0,1,.984,1.625,4.943,4.943,0,0,1,.357,1.818,5.511,5.511,0,0,1-.335,1.9,5.157,5.157,0,0,1-.937,1.623,4.591,4.591,0,0,1-1.452,1.134,4.141,4.141,0,0,1-1.876.424h-5.651v6.132Zm1.167-7.207h5.606a3.054,3.054,0,0,0,1.442-.333,3.3,3.3,0,0,0,1.086-.892,4.16,4.16,0,0,0,.688-1.283,4.747,4.747,0,0,0,.24-1.5,4.028,4.028,0,0,0-.287-1.52,4.229,4.229,0,0,0-.779-1.272,3.716,3.716,0,0,0-1.143-.868,3.075,3.075,0,0,0-1.383-.322h-5.469Z" transform="translate(-266.054 -304.55)"/>
    <path id="Path_26" data-name="Path 26" d="M533.353,610.573V594.327H540.1a4.193,4.193,0,0,1,1.9.433,4.889,4.889,0,0,1,1.5,1.156,5.5,5.5,0,0,1,.983,1.625,4.872,4.872,0,0,1,.355,1.818,5.475,5.475,0,0,1-.273,1.729,5.1,5.1,0,0,1-.777,1.5,4.346,4.346,0,0,1-1.214,1.1,4.227,4.227,0,0,1-1.556.573l4.049,6.315H543.72l-3.937-6.132h-5.262v6.132Zm1.169-7.207h5.7a2.964,2.964,0,0,0,1.42-.344,3.663,3.663,0,0,0,1.1-.9,4.008,4.008,0,0,0,.7-1.281,4.6,4.6,0,0,0,.242-1.478,4.024,4.024,0,0,0-.288-1.5,4.189,4.189,0,0,0-.777-1.27,3.875,3.875,0,0,0-1.145-.881,3.074,3.074,0,0,0-1.407-.333h-5.536Z" transform="translate(-303.293 -304.55)"/>
    <rect id="Rectangle_3" data-name="Rectangle 3" width="1.167" height="16.247" transform="translate(244.909 289.777)"/>
    <path id="Path_27" data-name="Path 27" d="M607.935,596.525v14.051h-1.167V594.329h.892l11.4,14.3v-14.3h1.167v16.247h-1.076Z" transform="translate(-356.434 -304.551)"/>
    <path id="Path_28" data-name="Path 28" d="M677.663,595.375h-5.95v15.2h-1.167v-15.2H664.6v-1.052h13.068Z" transform="translate(-398.292 -304.547)"/>
    <path id="Path_29" data-name="Path 29" d="M740,610.57V594.323h5.4a8.342,8.342,0,0,1,3.378.641,6.848,6.848,0,0,1,2.413,1.74,7.3,7.3,0,0,1,1.44,2.575,10.046,10.046,0,0,1,.481,3.145,9.885,9.885,0,0,1-.537,3.353,7.23,7.23,0,0,1-1.545,2.563,6.914,6.914,0,0,1-2.437,1.647,8.4,8.4,0,0,1-3.192.584Zm11.945-8.147a8.893,8.893,0,0,0-.433-2.826,6.376,6.376,0,0,0-1.27-2.23,5.8,5.8,0,0,0-2.048-1.465,6.961,6.961,0,0,0-2.794-.528h-4.232v14.142H745.4a6.937,6.937,0,0,0,2.826-.539,5.6,5.6,0,0,0,2.047-1.5,6.532,6.532,0,0,0,1.247-2.253,8.915,8.915,0,0,0,.424-2.8" transform="translate(-452.872 -304.547)"/>
    <rect id="Rectangle_4" data-name="Rectangle 4" width="1.167" height="16.247" transform="translate(303.439 289.777)"/>
    <path id="Path_30" data-name="Path 30" d="M818.709,610.573V594.327h6.751a4.181,4.181,0,0,1,1.9.433,4.874,4.874,0,0,1,1.5,1.156,5.546,5.546,0,0,1,.985,1.625,4.94,4.94,0,0,1,.355,1.818,5.478,5.478,0,0,1-.275,1.729,5.144,5.144,0,0,1-.777,1.5,4.372,4.372,0,0,1-1.214,1.1,4.214,4.214,0,0,1-1.556.573l4.049,6.315h-1.349l-3.937-6.132h-5.262v6.132Zm1.168-7.207h5.7a2.956,2.956,0,0,0,1.418-.344,3.611,3.611,0,0,0,1.1-.9,3.979,3.979,0,0,0,.7-1.281,4.6,4.6,0,0,0,.242-1.478,4.024,4.024,0,0,0-.288-1.5,4.154,4.154,0,0,0-.777-1.27,3.88,3.88,0,0,0-1.145-.881,3.076,3.076,0,0,0-1.407-.333h-5.537Z" transform="translate(-509.847 -304.55)"/>
    <path id="Path_31" data-name="Path 31" d="M883.311,609.52v1.054H872.487V594.326H883.1v1.052h-9.45v6.385h8.259v1.006h-8.259v6.75Z" transform="translate(-548.774 -304.549)"/>
    <path id="Path_32" data-name="Path 32" d="M917.9,602.092a8.671,8.671,0,0,1,.515-2.918,8.11,8.11,0,0,1,1.5-2.6,7.73,7.73,0,0,1,2.415-1.865,7.161,7.161,0,0,1,3.26-.721,6.648,6.648,0,0,1,3.705,1,6.239,6.239,0,0,1,2.288,2.55l-.959.548a5.518,5.518,0,0,0-1.018-1.418,5.45,5.45,0,0,0-1.259-.927,5.589,5.589,0,0,0-1.409-.515,6.793,6.793,0,0,0-1.44-.158,5.776,5.776,0,0,0-2.744.628,6.488,6.488,0,0,0-2.017,1.636,7.166,7.166,0,0,0-1.245,2.277,7.973,7.973,0,0,0-.424,2.552,7.707,7.707,0,0,0,1.876,5.045A6.658,6.658,0,0,0,923,608.8a5.648,5.648,0,0,0,2.562.6,6.6,6.6,0,0,0,1.511-.184,5.814,5.814,0,0,0,1.487-.571,6.011,6.011,0,0,0,1.327-1,5.218,5.218,0,0,0,1.03-1.43l1.008.481a5.438,5.438,0,0,1-1.123,1.627,7.02,7.02,0,0,1-1.58,1.189,7.423,7.423,0,0,1-1.84.721,7.863,7.863,0,0,1-1.911.242,6.433,6.433,0,0,1-3.054-.733,8.064,8.064,0,0,1-2.392-1.911,8.892,8.892,0,0,1-1.567-2.677,8.629,8.629,0,0,1-.561-3.054" transform="translate(-581.644 -304.307)"/>
    <path id="Path_33" data-name="Path 33" d="M985.392,595.375h-5.95v15.2h-1.167v-15.2h-5.951v-1.052h13.068Z" transform="translate(-621.041 -304.547)"/>
    <path id="Path_34" data-name="Path 34" d="M251.663,678.85a3.121,3.121,0,0,1-1.345.273,2.224,2.224,0,0,1-2.33-2.392,2.378,2.378,0,0,1,2.515-2.484,2.876,2.876,0,0,1,1.179.24l-.193.659a2,2,0,0,0-.986-.222,1.764,1.764,0,0,0-.031,3.52,2.425,2.425,0,0,0,1.045-.231Z" transform="translate(-96.733 -362.4)"/>
    <path id="Path_35" data-name="Path 35" d="M271.539,676.621a2.289,2.289,0,0,1-2.332,2.486,2.227,2.227,0,0,1-2.244-2.41,2.286,2.286,0,0,1,2.321-2.485,2.218,2.218,0,0,1,2.255,2.408m-3.715.049c0,1.023.59,1.8,1.423,1.8.812,0,1.42-.763,1.42-1.817,0-.793-.4-1.8-1.4-1.8s-1.441.928-1.441,1.818" transform="translate(-110.468 -362.375)"/>
    <path id="Path_36" data-name="Path 36" d="M290.808,675.583c0-.484-.009-.879-.04-1.267h.755l.049.775h.018a1.723,1.723,0,0,1,1.547-.881c.648,0,1.654.386,1.654,1.993V679h-.85v-2.7c0-.754-.28-1.383-1.085-1.383a1.207,1.207,0,0,0-1.139.872,1.163,1.163,0,0,0-.058.395V679h-.852Z" transform="translate(-127.699 -362.374)"/>
    <path id="Path_37" data-name="Path 37" d="M312.87,678.13a2.258,2.258,0,0,0,1.123.339c.617,0,.908-.31.908-.7,0-.406-.242-.628-.87-.859-.843-.3-1.237-.766-1.237-1.327a1.442,1.442,0,0,1,1.612-1.372,2.313,2.313,0,0,1,1.152.291l-.213.617a1.822,1.822,0,0,0-.957-.271c-.5,0-.783.291-.783.639,0,.388.28.561.89.792.812.313,1.229.715,1.229,1.414,0,.821-.639,1.4-1.751,1.4a2.657,2.657,0,0,1-1.316-.318Z" transform="translate(-143.543 -362.375)"/>
    <path id="Path_38" data-name="Path 38" d="M330.84,669.728v1.345h1.219v.648H330.84v2.526c0,.579.164.906.639.906a2,2,0,0,0,.493-.056l.038.637a2.085,2.085,0,0,1-.753.117,1.183,1.183,0,0,1-.919-.357,1.739,1.739,0,0,1-.329-1.221v-2.552h-.726v-.648h.726v-1.121Z" transform="translate(-155.577 -359.129)"/>
    <path id="Path_39" data-name="Path 39" d="M347.933,679l-.069-.59h-.029a1.741,1.741,0,0,1-1.432.7,1.334,1.334,0,0,1-1.43-1.347c0-1.13,1.006-1.749,2.815-1.738v-.1a.965.965,0,0,0-1.065-1.083,2.336,2.336,0,0,0-1.22.348l-.193-.561a2.911,2.911,0,0,1,1.538-.415c1.432,0,1.778.976,1.778,1.913v1.753A6.7,6.7,0,0,0,348.7,679Zm-.127-2.386c-.928-.02-1.984.144-1.984,1.054a.755.755,0,0,0,.8.812,1.16,1.16,0,0,0,1.13-.785.81.81,0,0,0,.049-.269Z" transform="translate(-166.934 -362.376)"/>
    <path id="Path_40" data-name="Path 40" d="M366.58,675.583c0-.484-.009-.879-.038-1.267h.754l.049.775h.018a1.723,1.723,0,0,1,1.547-.881c.648,0,1.654.386,1.654,1.993V679h-.85v-2.7c0-.754-.28-1.383-1.085-1.383a1.208,1.208,0,0,0-1.139.872,1.163,1.163,0,0,0-.058.395V679h-.852Z" transform="translate(-182.548 -362.374)"/>
    <path id="Path_41" data-name="Path 41" d="M389.1,669.728v1.345h1.219v.648H389.1v2.526c0,.579.164.906.639.906a2,2,0,0,0,.493-.056l.038.637a2.085,2.085,0,0,1-.753.117,1.183,1.183,0,0,1-.919-.357,1.739,1.739,0,0,1-.329-1.221v-2.552h-.726v-.648h.726v-1.121Z" transform="translate(-197.751 -359.129)"/>
    <rect id="Rectangle_5" data-name="Rectangle 5" width="0.852" height="6.865" transform="translate(194.496 309.759)"/>
    <path id="Path_42" data-name="Path 42" d="M415.018,674.6l1.025,2.766c.107.31.222.675.3.957h.02c.087-.282.184-.639.3-.977l.93-2.747h.9l-1.276,3.336a7.083,7.083,0,0,1-1.605,2.93,2.309,2.309,0,0,1-1.045.551l-.211-.717a2.193,2.193,0,0,0,.743-.415,2.574,2.574,0,0,0,.717-.948.59.59,0,0,0,.067-.2.692.692,0,0,0-.058-.222L414.09,674.6Z" transform="translate(-216.965 -362.654)"/>
    <path id="Path_43" data-name="Path 43" d="M450.393,674.318c-.018.339-.036.715-.036,1.289v2.717a2.694,2.694,0,0,1-.67,2.137,2.477,2.477,0,0,1-1.7.561,3.014,3.014,0,0,1-1.558-.388l.215-.648a2.635,2.635,0,0,0,1.372.368c.87,0,1.509-.453,1.509-1.634V678.2H449.5a1.68,1.68,0,0,1-1.491.783,2.093,2.093,0,0,1-1.991-2.284,2.244,2.244,0,0,1,2.108-2.484,1.556,1.556,0,0,1,1.46.812h.02l.038-.706Zm-.879,1.847a1.166,1.166,0,0,0-.049-.386,1.228,1.228,0,0,0-1.189-.9c-.814,0-1.392.688-1.392,1.773,0,.917.464,1.681,1.383,1.681a1.244,1.244,0,0,0,1.179-.872,1.438,1.438,0,0,0,.067-.453Z" transform="translate(-240.08 -362.374)"/>
    <path id="Path_44" data-name="Path 44" d="M470.009,675.777c0-.553-.009-1.025-.038-1.46h.744l.029.917h.038a1.408,1.408,0,0,1,1.3-1.025.813.813,0,0,1,.242.031v.8a1.362,1.362,0,0,0-.289-.027,1.2,1.2,0,0,0-1.143,1.092,2.521,2.521,0,0,0-.036.4V679h-.843Z" transform="translate(-257.414 -362.373)"/>
    <path id="Path_45" data-name="Path 45" d="M488.061,676.621a2.289,2.289,0,0,1-2.332,2.486,2.227,2.227,0,0,1-2.244-2.41,2.286,2.286,0,0,1,2.32-2.485,2.218,2.218,0,0,1,2.255,2.408m-3.715.049c0,1.023.59,1.8,1.423,1.8.812,0,1.42-.763,1.42-1.817,0-.793-.4-1.8-1.4-1.8s-1.441.928-1.441,1.818" transform="translate(-267.196 -362.375)"/>
    <path id="Path_46" data-name="Path 46" d="M506.137,674.6l.62,2.379c.133.522.258,1,.346,1.491h.029c.107-.475.26-.977.417-1.483l.764-2.386h.716l.724,2.341c.175.561.311,1.054.417,1.529h.027a14.139,14.139,0,0,1,.358-1.518l.668-2.351h.841l-1.509,4.679h-.772l-.716-2.235a14.8,14.8,0,0,1-.417-1.536h-.02a14.063,14.063,0,0,1-.426,1.547l-.755,2.224h-.773l-1.411-4.679Z" transform="translate(-282.963 -362.654)"/>
    <path id="Path_47" data-name="Path 47" d="M537.128,668.441a.527.527,0,0,1-1.054,0,.518.518,0,0,1,.533-.531.5.5,0,0,1,.521.531m-.946,1.316h.852v4.679h-.852Z" transform="translate(-305.263 -357.813)"/>
    <path id="Path_48" data-name="Path 48" d="M548.051,675.583c0-.484-.009-.879-.04-1.267h.755l.049.775h.018a1.723,1.723,0,0,1,1.547-.881c.648,0,1.654.386,1.654,1.993V679h-.85v-2.7c0-.754-.28-1.383-1.085-1.383a1.208,1.208,0,0,0-1.139.872,1.163,1.163,0,0,0-.058.395V679h-.852Z" transform="translate(-313.903 -362.374)"/>
    <path id="Path_49" data-name="Path 49" d="M574.235,674.318c-.018.339-.038.715-.038,1.289v2.717a2.693,2.693,0,0,1-.668,2.137,2.48,2.48,0,0,1-1.7.561,3.015,3.015,0,0,1-1.558-.388l.215-.648a2.636,2.636,0,0,0,1.372.368c.872,0,1.509-.453,1.509-1.634V678.2h-.018a1.677,1.677,0,0,1-1.491.783,2.094,2.094,0,0,1-1.991-2.284,2.245,2.245,0,0,1,2.108-2.484,1.556,1.556,0,0,1,1.461.812h.018l.04-.706Zm-.879,1.847a1.167,1.167,0,0,0-.049-.386,1.228,1.228,0,0,0-1.189-.9c-.814,0-1.394.688-1.394,1.773,0,.917.464,1.681,1.385,1.681a1.245,1.245,0,0,0,1.179-.872,1.5,1.5,0,0,0,.067-.453Z" transform="translate(-329.722 -362.374)"/>
    <path id="Path_50" data-name="Path 50" d="M603.772,674.6l1.025,2.766c.109.31.224.675.3.957h.02c.088-.282.184-.639.3-.977l.93-2.747h.9l-1.278,3.336a7.076,7.076,0,0,1-1.605,2.93,2.3,2.3,0,0,1-1.043.551l-.213-.717a2.2,2.2,0,0,0,.744-.415,2.572,2.572,0,0,0,.716-.948.6.6,0,0,0,.069-.2.748.748,0,0,0-.058-.222l-1.733-4.314Z" transform="translate(-353.594 -362.654)"/>
    <path id="Path_51" data-name="Path 51" d="M628.075,676.621a2.289,2.289,0,0,1-2.331,2.486,2.229,2.229,0,0,1-2.246-2.41,2.287,2.287,0,0,1,2.322-2.485,2.218,2.218,0,0,1,2.255,2.408m-3.715.049c0,1.023.59,1.8,1.421,1.8.812,0,1.422-.763,1.422-1.817,0-.793-.4-1.8-1.4-1.8s-1.442.928-1.442,1.818" transform="translate(-368.544 -362.375)"/>
    <path id="Path_52" data-name="Path 52" d="M651.3,678c0,.486.009.91.038,1.276h-.754l-.049-.764h-.02a1.757,1.757,0,0,1-1.545.872c-.737,0-1.616-.406-1.616-2.051V674.6h.85v2.592c0,.89.271,1.489,1.045,1.489a1.227,1.227,0,0,0,1.121-.773,1.183,1.183,0,0,0,.078-.435V674.6h.852Z" transform="translate(-385.811 -362.655)"/>
    <path id="Path_53" data-name="Path 53" d="M670.146,675.777c0-.553-.009-1.025-.038-1.46h.744l.029.917h.038a1.408,1.408,0,0,1,1.3-1.025.813.813,0,0,1,.242.031v.8a1.376,1.376,0,0,0-.289-.027,1.2,1.2,0,0,0-1.143,1.092,2.506,2.506,0,0,0-.038.4V679h-.841Z" transform="translate(-402.283 -362.373)"/>
    <path id="Path_54" data-name="Path 54" d="M696.019,675.777c0-.553-.009-1.025-.038-1.46h.745l.029.917h.038a1.408,1.408,0,0,1,1.3-1.025.814.814,0,0,1,.242.031v.8a1.378,1.378,0,0,0-.289-.027,1.2,1.2,0,0,0-1.143,1.092,2.513,2.513,0,0,0-.036.4V679h-.843Z" transform="translate(-421.011 -362.373)"/>
    <path id="Path_55" data-name="Path 55" d="M710.3,676.814a1.5,1.5,0,0,0,1.609,1.625,3.086,3.086,0,0,0,1.294-.242l.146.608a3.805,3.805,0,0,1-1.558.291,2.175,2.175,0,0,1-2.3-2.361,2.275,2.275,0,0,1,2.2-2.525,1.982,1.982,0,0,1,1.933,2.206,3.438,3.438,0,0,1-.027.4Zm2.5-.61a1.214,1.214,0,0,0-1.179-1.385,1.411,1.411,0,0,0-1.307,1.385Z" transform="translate(-430.792 -362.374)"/>
    <path id="Path_56" data-name="Path 56" d="M731.665,675.845c0-.6-.02-1.083-.036-1.529h.763l.038.8h.02a1.841,1.841,0,0,1,1.662-.91,2.122,2.122,0,0,1,1.984,2.381,2.215,2.215,0,0,1-2.127,2.514,1.642,1.642,0,0,1-1.442-.735h-.018v2.544h-.843Zm.843,1.247a1.889,1.889,0,0,0,.038.349,1.312,1.312,0,0,0,1.276,1c.9,0,1.421-.735,1.421-1.809,0-.937-.491-1.742-1.392-1.742a1.358,1.358,0,0,0-1.287,1.056,1.339,1.339,0,0,0-.056.346Z" transform="translate(-446.815 -362.372)"/>
    <path id="Path_57" data-name="Path 57" d="M759.029,678c0,.486.009.91.038,1.276h-.754l-.049-.764h-.02a1.757,1.757,0,0,1-1.545.872c-.737,0-1.616-.406-1.616-2.051V674.6h.85v2.592c0,.89.271,1.489,1.045,1.489a1.227,1.227,0,0,0,1.121-.773,1.185,1.185,0,0,0,.078-.435V674.6h.852Z" transform="translate(-463.792 -362.655)"/>
    <path id="Path_58" data-name="Path 58" d="M777.613,669.728v1.345h1.218v.648h-1.218v2.526c0,.579.162.906.637.906a2,2,0,0,0,.495-.056l.036.637a2.066,2.066,0,0,1-.752.117,1.181,1.181,0,0,1-.919-.357,1.73,1.73,0,0,1-.329-1.221v-2.552h-.726v-.648h.726v-1.121Z" transform="translate(-478.972 -359.129)"/>
    <path id="Path_59" data-name="Path 59" d="M794.7,679l-.067-.59H794.6a1.74,1.74,0,0,1-1.432.7,1.335,1.335,0,0,1-1.432-1.347c0-1.13,1.008-1.749,2.816-1.738v-.1a.965.965,0,0,0-1.063-1.083,2.331,2.331,0,0,0-1.219.348l-.195-.561a2.917,2.917,0,0,1,1.54-.415c1.432,0,1.778.976,1.778,1.913v1.753a6.525,6.525,0,0,0,.078,1.119Zm-.126-2.386c-.93-.02-1.984.144-1.984,1.054a.755.755,0,0,0,.8.812,1.163,1.163,0,0,0,1.13-.785.853.853,0,0,0,.049-.269Z" transform="translate(-490.321 -362.376)"/>
    <path id="Path_60" data-name="Path 60" d="M812.94,669.728v1.345h1.218v.648H812.94v2.526c0,.579.162.906.637.906a2,2,0,0,0,.495-.056l.036.637a2.066,2.066,0,0,1-.752.117,1.181,1.181,0,0,1-.919-.357,1.731,1.731,0,0,1-.329-1.221v-2.552h-.726v-.648h.726v-1.121Z" transform="translate(-504.544 -359.129)"/>
    <path id="Path_61" data-name="Path 61" d="M829.072,668.441a.527.527,0,0,1-1.054,0,.518.518,0,0,1,.532-.531.5.5,0,0,1,.522.531m-.948,1.316h.852v4.679h-.852Z" transform="translate(-516.586 -357.813)"/>
    <path id="Path_62" data-name="Path 62" d="M843.443,676.621a2.29,2.29,0,0,1-2.332,2.486,2.228,2.228,0,0,1-2.246-2.41,2.286,2.286,0,0,1,2.322-2.485,2.218,2.218,0,0,1,2.255,2.408m-3.714.049c0,1.023.59,1.8,1.421,1.8.812,0,1.421-.763,1.421-1.817,0-.793-.4-1.8-1.4-1.8s-1.442.928-1.442,1.818" transform="translate(-524.438 -362.375)"/>
    <path id="Path_63" data-name="Path 63" d="M862.717,675.583c0-.484-.009-.879-.038-1.267h.753l.049.775h.02a1.715,1.715,0,0,1,1.545-.881c.648,0,1.654.386,1.654,1.993V679h-.85v-2.7c0-.754-.28-1.383-1.083-1.383a1.208,1.208,0,0,0-1.141.872,1.163,1.163,0,0,0-.058.395V679h-.852Z" transform="translate(-541.675 -362.374)"/>
  </g>
</svg>
