<?xml version="1.0" encoding="utf-8"?>
<!-- Generator: Adobe Illustrator 23.0.6, SVG Export Plug-In . SVG Version: 6.00 Build 0)  -->
<svg version="1.1" id="Warstwa_1" xmlns="http://www.w3.org/2000/svg" xmlns:xlink="http://www.w3.org/1999/xlink" x="0px" y="0px"
	 viewBox="0 0 48 38.6" style="enable-background:new 0 0 48 38.6;" xml:space="preserve">
<style type="text/css">
	.st0{fill:#FFFFFF;}
</style>
<g id="Mask_Group_6" transform="translate(-430 -1596)">
	<g id="_001-press" transform="translate(430 1600.68)">
		<path id="Path_115" class="st0" d="M9.6,0.5c-2.5,0-4.4,2-4.4,4.4s2,4.4,4.4,4.4s4.4-2,4.4-4.4C14.1,2.5,12.1,0.5,9.6,0.5z
			 M9.6,7.1c-1.2,0-2.2-1-2.2-2.2c0-1.2,1-2.2,2.2-2.2c1.2,0,2.2,1,2.2,2.2C11.8,6.1,10.9,7.1,9.6,7.1C9.6,7.1,9.6,7.1,9.6,7.1
			L9.6,7.1z"/>
		<path id="Path_116" class="st0" d="M9.6,17.5c-2.5,0-4.4,2-4.4,4.4c0,2.5,2,4.4,4.4,4.4s4.4-2,4.4-4.4
			C14.1,19.5,12.1,17.5,9.6,17.5z M9.6,24.1c-1.2,0-2.2-1-2.2-2.2c0-1.2,1-2.2,2.2-2.2s2.2,1,2.2,2.2C11.8,23.1,10.9,24.1,9.6,24.1
			L9.6,24.1z"/>
		<path id="Path_117" class="st0" d="M43.6,18.5c-1.6-2.3-3.8-4-6.3-5.2C42,10.7,43.6,4.8,41,0.2c-1.7-3-4.9-4.9-8.4-4.9h-23
			C4.3-4.7,0-0.4,0,4.9c0,3.6,2,6.9,5.1,8.5c-4.7,2.5-6.5,8.3-4,13c1.7,3.2,4.9,5.1,8.5,5.1h10.9c0.6,0,1.1-0.5,1.1-1.1
			s-0.5-1.1-1.1-1.1l0,0h-4.7c2.7-2.3,4-5.8,3.3-9.3c2.5,3.8,3.9,8.3,3.8,12.8c0,0.6,0.5,1.1,1.1,1.1c0,0,0,0,0,0h23
			c0.6,0,1.1-0.5,1.1-1.1C48.1,27.7,46.6,22.7,43.6,18.5z M32.6-2.5c4.1,0,7.4,3.2,7.5,7.3s-3.2,7.4-7.3,7.5c-0.1,0-0.1,0-0.2,0
			H15.8c4.1-3.4,4.6-9.4,1.3-13.5c-0.4-0.5-0.8-0.9-1.3-1.3L32.6-2.5z M2.2,4.9c0-4.1,3.3-7.4,7.4-7.4S17,0.8,17,4.9
			c0,4.1-3.3,7.4-7.4,7.4c0,0,0,0,0,0C5.5,12.3,2.2,9,2.2,4.9z M9.6,29.3c-4.1,0-7.4-3.3-7.4-7.4s3.3-7.4,7.4-7.4s7.4,3.3,7.4,7.4
			C17,26,13.7,29.3,9.6,29.3z M25,31.7c-0.1-4.8-1.6-9.4-4.4-13.3c-1.1-1.5-2.5-2.9-4-3.9h16c7,0,12.8,7.6,13.2,17.2H25z"/>
	</g>
</g>
</svg>
