<?xml version="1.0" encoding="utf-8"?>
<!-- Generator: Adobe Illustrator 23.0.6, SVG Export Plug-In . SVG Version: 6.00 Build 0)  -->
<svg version="1.1" id="Warstwa_1" xmlns="http://www.w3.org/2000/svg" xmlns:xlink="http://www.w3.org/1999/xlink" x="0px" y="0px"
	 viewBox="0 0 34.9 48" style="enable-background:new 0 0 34.9 48;" xml:space="preserve">
<g id="approve" transform="translate(-69.963)">
	<g id="Group_76" transform="translate(69.963)">
		<g id="Group_75">
			<path id="Path_174" d="M34.1,4H22.7c-0.9-2.9-3.9-4.6-6.8-3.8c-1.8,0.5-3.2,1.9-3.8,3.8H0.7C0.3,4,0,4.3,0,4.7c0,0,0,0,0,0v42.5
				C0,47.7,0.3,48,0.7,48l0,0h33.4c0.4,0,0.7-0.3,0.7-0.7l0,0V4.7C34.9,4.3,34.5,4,34.1,4L34.1,4z M10.2,7.9V5.5h2.5h0h0l0,0h0l0,0
				l0,0l0,0l0,0l0,0l0,0l0,0l0,0l0,0l0,0l0,0l0,0l0,0l0,0c0,0,0,0,0,0l0,0c0,0,0,0,0,0l0,0l0,0c0,0,0,0,0,0l0,0c0,0,0,0,0,0s0,0,0,0
				s0,0,0,0v0c0.4-2.2,2.4-3.7,4.6-3.3c1.7,0.3,3,1.6,3.3,3.3c0,0,0,0,0,0s0,0,0,0s0,0,0,0l0,0l0,0l0,0l0,0l0,0c0,0,0,0,0,0l0,0
				c0,0,0,0,0,0l0,0c0,0,0,0,0,0.1l0,0c0,0,0,0,0.1,0l0,0l0,0l0,0l0,0l0,0l0,0l0,0l0,0l0,0l0,0l0,0l0.1,0h0c0,0,0,0,0.1,0h2.5v4.5
				H10.2V7.9z M9.5,11.4h15.9c0.4,0,0.7-0.3,0.7-0.7c0,0,0,0,0,0v-2h4.1v27.5h-6.8c-0.4,0-0.7,0.3-0.7,0.7l0,0v6.8h-18V8.6h4.1v2
				C8.7,11.1,9.1,11.4,9.5,11.4C9.5,11.4,9.5,11.4,9.5,11.4L9.5,11.4z M29.2,37.7l-5,5v-5H29.2z M33.4,46.5H1.5v-41h7.3v1.7H3.9
				c-0.4,0-0.7,0.3-0.7,0.7c0,0,0,0,0,0v36.6c0,0.4,0.3,0.7,0.7,0.7l0,0h19.5c0,0,0,0,0.1,0h0l0,0l0,0l0,0l0,0l0,0l0,0l0,0l0,0l0,0
				l0,0l0,0c0,0,0,0,0.1,0l0,0l7.6-7.6l0,0c0,0,0,0,0-0.1l0,0c0,0,0,0,0,0l0,0l0,0c0,0,0,0,0,0l0,0c0,0,0,0,0,0s0,0,0,0s0,0,0,0
				s0,0,0,0s0,0,0,0s0,0,0,0s0,0,0-0.1v-29c0-0.4-0.3-0.7-0.7-0.7l0,0h-4.8V5.5h7.3L33.4,46.5L33.4,46.5z"/>
		</g>
	</g>
	<g id="Group_78" transform="translate(77.913 14.311)">
		<g id="Group_77">
			<path id="Path_175" d="M9.5,0C4.2,0,0,4.2,0,9.5S4.2,19,9.5,19c5.2,0,9.5-4.2,9.5-9.5l0,0C19,4.3,14.7,0,9.5,0z M9.5,17.5
				c-4.4,0-8-3.6-8-8s3.6-8,8-8s8,3.6,8,8C17.5,13.9,13.9,17.5,9.5,17.5z"/>
		</g>
	</g>
	<g id="Group_80" transform="translate(81.292 19.677)">
		<g id="Group_79">
			<path id="Path_176" d="M10.6,0.2c-0.3-0.3-0.8-0.3-1.1,0c0,0,0,0,0,0L3.1,6.6L1.3,4.8C1,4.5,0.5,4.5,0.2,4.8s-0.3,0.8,0,1.1
				l2.4,2.4c0.3,0.3,0.8,0.3,1.1,0c0,0,0,0,0,0l7-7C10.9,1,10.9,0.5,10.6,0.2C10.6,0.2,10.6,0.2,10.6,0.2z"/>
		</g>
	</g>
</g>
</svg>
