<?xml version="1.0" encoding="utf-8"?>
<!-- Generator: Adobe Illustrator 23.0.6, SVG Export Plug-In . SVG Version: 6.00 Build 0)  -->
<svg version="1.1" id="Warstwa_1" xmlns="http://www.w3.org/2000/svg" xmlns:xlink="http://www.w3.org/1999/xlink" x="0px" y="0px"
	 viewBox="0 0 9.9 14.1" style="enable-background:new 0 0 9.9 14.1;" xml:space="preserve">
<path id="right-arrow_2_" d="M9.8,9.5c0.2-0.2,0.2-0.5,0-0.7c-0.2-0.2-0.5-0.2-0.7,0l-3.6,3.6V0.5C5.5,0.2,5.2,0,5,0
	S4.5,0.2,4.5,0.5v11.9L0.9,8.8c-0.2-0.2-0.5-0.2-0.7,0C0,9,0,9.3,0.2,9.5c0,0,0,0,0,0l4.5,4.5c0.2,0.2,0.5,0.2,0.7,0c0,0,0,0,0,0
	L9.8,9.5z"/>
</svg>
