<?xml version="1.0" encoding="utf-8"?>
<!-- Generator: Adobe Illustrator 23.0.6, SVG Export Plug-In . SVG Version: 6.00 Build 0)  -->
<svg version="1.1" id="Warstwa_1" xmlns="http://www.w3.org/2000/svg" xmlns:xlink="http://www.w3.org/1999/xlink" x="0px" y="0px"
	 viewBox="0 0 38 38" style="enable-background:new 0 0 38 38;" xml:space="preserve">
<g id="copy" transform="translate(-60 -560)">
	<path id="_002-office-photocopier" d="M96.7,574.3l-7,4v-3.5l7.8-4.5c0.4-0.2,0.6-0.7,0.4-1.2c-0.2-0.4-0.7-0.6-1.2-0.4
		c0,0,0,0,0,0l-7,4v-6.8c0-0.5-0.4-0.9-0.9-0.9l0,0h-5v-4.2c0-0.5-0.4-0.9-0.9-0.9c0,0,0,0,0,0H70.7c-2.2,0-4,1.8-4,4v2c0,0,0,0,0,0
		c0,0,0,0,0,0v2.7h-5.9c-0.5,0-0.9,0.4-0.9,0.9V580c0,0.3,0.2,0.6,0.5,0.8l6.3,3.3v11.5c0,0.5,0.4,0.9,0.9,0.9c0,0,0,0,0,0v0.7
		c0,0.5,0.4,0.8,0.9,0.8c0.5,0,0.8-0.4,0.8-0.8v-0.7h17.8v0.7c0,0.5,0.4,0.8,0.9,0.8c0.5,0,0.8-0.4,0.8-0.8v-0.7
		c0.5,0,0.9-0.4,0.9-0.9l0,0v-15.3l7.8-4.5c0.4-0.2,0.6-0.7,0.4-1.2C97.7,574.2,97.2,574,96.7,574.3
		C96.7,574.3,96.7,574.3,96.7,574.3L96.7,574.3z M88,594.7H76.1v-2.3H88L88,594.7z M76.1,590.7v-2.3H88v2.3L76.1,590.7z M76.1,586.7
		v-2.3H88v2.3L76.1,586.7z M68.5,564c0-1.2,1-2.2,2.2-2.2h11.4v3.3H68.5V564z M68.5,566.8H88v1.9h-2.3c-0.5,0-0.8,0.4-0.8,0.9
		c0,0.5,0.4,0.8,0.8,0.8H88v12.3H75.3c-0.5,0-0.9,0.4-0.9,0.9l0,0v11.2h-5.9v-24.3h13.8c0.5,0,0.9-0.4,0.9-0.8
		c0-0.5-0.4-0.9-0.8-0.9c0,0,0,0-0.1,0H68.5V566.8z M61.7,579.5v-9.1h5.1v11.7L61.7,579.5z"/>
</g>
</svg>
