<?xml version="1.0" encoding="utf-8"?>
<!-- Generator: Adobe Illustrator 23.0.6, SVG Export Plug-In . SVG Version: 6.00 Build 0)  -->
<svg version="1.1" id="Warstwa_1" xmlns="http://www.w3.org/2000/svg" xmlns:xlink="http://www.w3.org/1999/xlink" x="0px" y="0px"
	 viewBox="0 0 48.1 32.8" style="enable-background:new 0 0 48.1 32.8;" xml:space="preserve">
<path id="delivery-truck" d="M39.3,24c-1.2,0-2.3,0.5-3.1,1.3c-1.7,1.7-1.8,4.4-0.1,6.1c0,0,0,0.1,0.1,0.1c0.8,0.8,2,1.3,3.1,1.3
	c2.4,0,4.4-2,4.4-4.4C43.7,25.9,41.7,24,39.3,24L39.3,24z M39.3,30.8c-1.4,0-2.4-1.1-2.5-2.4c0-1.4,1.1-2.5,2.4-2.5c0,0,0,0,0,0
	c1.4,0,2.4,1.1,2.4,2.5C41.7,29.7,40.6,30.8,39.3,30.8z M40.4,9.3C40.3,9.1,40,9,39.8,9h-5c-0.5,0-1,0.4-1,1v8c0,0.5,0.4,1,1,1h8
	c0.5,0,1-0.4,1-1v-5.4c0-0.3-0.1-0.5-0.3-0.7L40.4,9.3z M41.7,17.1h-6V11h3.7l2.3,2.1V17.1z M15.4,24c-1.2,0-2.3,0.5-3.1,1.3
	c-1.7,1.7-1.8,4.4-0.1,6.1c0,0,0,0.1,0.1,0.1c0.8,0.8,2,1.3,3.1,1.3c2.4,0,4.4-2,4.4-4.4C19.8,25.9,17.8,24,15.4,24L15.4,24z
	 M15.4,30.8c-1.4,0-2.4-1.1-2.5-2.4c0-1.4,1.1-2.5,2.4-2.5c0,0,0,0,0,0c1.4,0,2.4,1.1,2.4,2.5C17.8,29.7,16.7,30.8,15.4,30.8z
	 M8.9,25.2h-2v-2.6c0-0.5-0.5-1-1-0.9c-0.5,0-0.9,0.4-0.9,0.9v3.6c0,0.5,0.4,1,1,1h2.9c0.5,0,1-0.4,1-1S9.4,25.2,8.9,25.2L8.9,25.2z
	 M13.8,19.8c0-0.5-0.4-1-1-1H1c-0.5,0-1,0.4-1,0.9s0.4,1,0.9,1c0,0,0,0,0.1,0h11.9C13.4,20.8,13.8,20.4,13.8,19.8
	C13.8,19.8,13.8,19.8,13.8,19.8L13.8,19.8z M3,16.3l11.9,0.1c0.5,0,1-0.4,1-1c0-0.5-0.4-1-0.9-1c0,0,0,0,0,0L3,14.3h0
	c-0.5,0-1,0.5-1,1C2,15.9,2.5,16.3,3,16.3L3,16.3z M5,11.9h11.9c0.5,0,1-0.4,1-1s-0.4-1-1-1H5c-0.5,0-1,0.4-1,1S4.4,11.9,5,11.9
	L5,11.9L5,11.9z M47.7,10.5L47.7,10.5l-7-5.8c-0.2-0.1-0.4-0.2-0.6-0.2h-8.2V1c0-0.5-0.4-1-1-1H5.9c-0.5,0-1,0.4-1,1v7.2
	c0,0.5,0.5,1,1,0.9c0.5,0,0.9-0.4,0.9-0.9V2h23v23.2h-8c-0.5,0-1,0.4-1,1s0.4,1,1,1h12c0.5,0,1-0.4,1-1s-0.4-1-1-1h-2V6.5h7.9
	l6.4,5.3L46,25.2h-1c-0.5,0-1,0.4-1,0.9s0.4,1,0.9,1c0,0,0,0,0.1,0h2c0.5,0,1-0.4,1-1c0,0,0,0,0,0l0.1-14.8
	C48.1,11,47.9,10.7,47.7,10.5z"/>
</svg>
