<?xml version="1.0" encoding="utf-8"?>
<!-- Generator: Adobe Illustrator 23.0.6, SVG Export Plug-In . SVG Version: 6.00 Build 0)  -->
<svg version="1.1" id="Warstwa_1" xmlns="http://www.w3.org/2000/svg" xmlns:xlink="http://www.w3.org/1999/xlink" x="0px" y="0px"
	 viewBox="0 0 24 18.2" style="enable-background:new 0 0 24 18.2;" xml:space="preserve">
<g id="envelope" transform="translate(0 -57.75)">
	<g id="Group_30" transform="translate(0 57.75)">
		<path id="Path_129" d="M21,0H2.9C1.3,0,0,1.3,0,2.9v12.4c0,1.6,1.3,2.9,2.9,2.9H21c1.6,0,2.9-1.3,2.9-2.9V2.9C24,1.3,22.6,0,21,0
			C21,0,21,0,21,0z M22.6,15.3c0,0.9-0.7,1.6-1.6,1.6H2.9c-0.9,0-1.6-0.7-1.6-1.6V2.9c0-0.9,0.7-1.6,1.6-1.6H21
			c0.9,0,1.6,0.7,1.6,1.6L22.6,15.3L22.6,15.3z"/>
		<path id="Path_130" d="M15.1,9L21,3.7c0.3-0.2,0.3-0.7,0-0.9c-0.2-0.3-0.7-0.3-0.9-0.1L12,10l-1.6-1.4c0,0,0,0,0,0
			c0,0-0.1-0.1-0.1-0.1L3.9,2.7C3.6,2.5,3.2,2.5,2.9,2.8S2.7,3.5,3,3.7l0,0L8.9,9L3,14.5c-0.3,0.3-0.3,0.7,0,0.9
			c0.1,0.1,0.3,0.2,0.5,0.2c0.2,0,0.3-0.1,0.5-0.2l6-5.6l1.6,1.5c0.3,0.2,0.6,0.2,0.9,0l1.7-1.5l6,5.7c0.3,0.3,0.7,0.2,0.9,0
			c0.3-0.3,0.2-0.7,0-0.9L15.1,9z"/>
	</g>
</g>
</svg>
