<?xml version="1.0" encoding="utf-8"?>
<!-- Generator: Adobe Illustrator 23.0.6, SVG Export Plug-In . SVG Version: 6.00 Build 0)  -->
<svg version="1.1" id="Warstwa_1" xmlns="http://www.w3.org/2000/svg" xmlns:xlink="http://www.w3.org/1999/xlink" x="0px" y="0px"
	 viewBox="0 0 28.8 28.8" style="enable-background:new 0 0 28.8 28.8;" xml:space="preserve">
<style type="text/css">
	.st0{enable-background:new    ;}
</style>
<path id="facebook" class="st0" d="M24.9,0H3.9C1.7,0,0,1.7,0,3.9c0,0,0,0,0,0v21.1c0,2.1,1.7,3.9,3.9,3.9c0,0,0,0,0,0h10.4l0-10.3
	h-2.7c-0.3,0-0.6-0.3-0.6-0.6l0-3.3c0-0.3,0.3-0.6,0.6-0.6c0,0,0,0,0,0h2.7v-3.2C14.3,7,16.5,5,19.9,5h2.7c0.3,0,0.6,0.3,0.6,0.6v0
	v2.8c0,0.3-0.3,0.6-0.6,0.6h-1.7c-1.8,0-2.2,0.9-2.2,2.1v2.8h4c0.3,0,0.6,0.3,0.6,0.6c0,0,0,0.1,0,0.1L23,18c0,0.3-0.3,0.6-0.6,0.6
	h-3.6l0,10.3h6.2c2.1,0,3.9-1.7,3.9-3.9c0,0,0,0,0,0V3.9C28.8,1.7,27.1,0,24.9,0C24.9,0,24.9,0,24.9,0z"/>
</svg>
