<?xml version="1.0" encoding="utf-8"?>
<!-- Generator: Adobe Illustrator 23.0.6, SVG Export Plug-In . SVG Version: 6.00 Build 0)  -->
<svg version="1.1" id="Warstwa_1" xmlns="http://www.w3.org/2000/svg" xmlns:xlink="http://www.w3.org/1999/xlink" x="0px" y="0px"
	 viewBox="0 0 38.3 48" style="enable-background:new 0 0 38.3 48;" xml:space="preserve">
<g id="file" transform="translate(-0.5)">
	<path id="Path_162" d="M27.7,0.3C27.6,0.1,27.3,0,27,0H5.6C2.8,0,0.5,2.3,0.5,5.1v37.9c0,2.8,2.3,5,5.1,5.1h28.2
		c2.8,0,5.1-2.3,5.1-5.1V12.1c0-0.3-0.1-0.5-0.3-0.7L27.7,0.3z M28,3.5l7.4,7.6H29c-0.5,0-1-0.4-1-1L28,3.5z M33.8,46H5.6
		c-1.7,0-3-1.4-3-3V5.1c0-1.7,1.4-3,3-3H26v8.1c0,1.7,1.4,3,3,3c0,0,0,0,0,0h7.8v29.8C36.8,44.6,35.4,46,33.8,46L33.8,46z"/>
	<path id="Path_163" d="M31,38.5H7.7c-0.6,0-1,0.5-1,1c0,0.6,0.5,1,1,1H31c0.6,0,1-0.5,1-1C32,39,31.5,38.5,31,38.5z"/>
	<path id="Path_164" d="M7.7,35.1h13.9c0.6,0,1-0.5,1-1c0-0.6-0.5-1-1-1l0,0H7.7c-0.6,0-1,0.5-1,1C6.7,34.6,7.2,35.1,7.7,35.1z"/>
	<path id="Path_165" d="M7.9,23l1.4,0.1c0.2,0.5,0.4,1.1,0.7,1.5l-0.9,1.1c-0.3,0.4-0.3,1,0.1,1.4l2,2c0.4,0.4,1,0.4,1.4,0.1
		l1.1-0.9c0.5,0.3,1,0.5,1.5,0.7l0.1,1.4c0,0.5,0.5,0.9,1,0.9h2.8c0.5,0,1-0.4,1-0.9l0.1-1.4c0.5-0.2,1.1-0.4,1.5-0.7l1.1,0.9
		c0.4,0.3,1,0.3,1.4-0.1l2-2c0.4-0.4,0.4-1,0.1-1.4l-0.9-1.1c0.3-0.5,0.5-1,0.7-1.5l1.4-0.1c0.5,0,0.9-0.5,0.9-1v-2.8
		c0-0.5-0.4-1-0.9-1L26,18c-0.2-0.5-0.4-1.1-0.7-1.5l0.9-1.1c0.3-0.4,0.3-1-0.1-1.4l-2-2c-0.4-0.4-1-0.4-1.4-0.1l-1.1,0.9
		c-0.5-0.3-1-0.5-1.5-0.7l-0.1-1.4c0-0.5-0.5-0.9-1-0.9h-2.8c-0.5,0-1,0.4-1,0.9l-0.1,1.4c-0.5,0.2-1.1,0.4-1.5,0.7L12.5,12
		c-0.4-0.3-1-0.3-1.4,0.1l-2,2c-0.4,0.4-0.4,1-0.1,1.4l0.9,1.1c-0.3,0.5-0.5,1-0.7,1.5l-1.4,0.1c-0.5,0-0.9,0.5-0.9,1V22
		C7,22.5,7.4,22.9,7.9,23z M9,20.1l1.2-0.1c0.4,0,0.8-0.4,0.9-0.8c0.2-0.8,0.5-1.6,1-2.2c0.2-0.4,0.2-0.9-0.1-1.2l-0.8-0.9l0.7-0.7
		l0.9,0.8c0.3,0.3,0.8,0.3,1.2,0.1c0.7-0.4,1.4-0.8,2.2-0.9c0.4-0.1,0.7-0.5,0.8-0.9l0.1-1.2h1l0.1,1.2c0,0.4,0.4,0.8,0.8,0.9
		c0.8,0.2,1.6,0.5,2.2,1c0.4,0.2,0.9,0.2,1.2-0.1l0.9-0.7l0.7,0.7l-0.8,0.9c-0.3,0.3-0.3,0.8-0.1,1.2c0.4,0.7,0.8,1.4,0.9,2.2
		c0.1,0.4,0.5,0.8,0.9,0.8l1.2,0.1v1l-1.2,0.1c-0.4,0-0.8,0.4-0.9,0.8c-0.2,0.8-0.5,1.6-1,2.2c-0.2,0.4-0.2,0.9,0.1,1.2l0.8,0.9
		L23.4,27l-0.9-0.8c-0.3-0.3-0.8-0.3-1.2-0.1c-0.7,0.4-1.4,0.8-2.2,0.9c-0.4,0.1-0.7,0.5-0.8,0.9l-0.1,1.2h-1L17,28
		c0-0.4-0.4-0.8-0.8-0.9c-0.8-0.2-1.6-0.5-2.2-1c-0.4-0.2-0.9-0.2-1.2,0.1L11.9,27l-0.7-0.7l0.8-0.9c0.3-0.3,0.3-0.8,0.1-1.2
		c-0.4-0.7-0.8-1.4-0.9-2.2c-0.1-0.4-0.5-0.8-0.9-0.8L9,21.1L9,20.1z"/>
	<path id="Path_166" d="M17.7,25c2.4,0,4.4-2,4.4-4.4c0-2.4-2-4.4-4.4-4.4s-4.4,2-4.4,4.4l0,0C13.3,23,15.2,25,17.7,25z M17.7,18.2
		c1.3,0,2.4,1.1,2.4,2.4c0,1.3-1.1,2.4-2.4,2.4c-1.3,0-2.4-1.1-2.4-2.4S16.3,18.2,17.7,18.2L17.7,18.2z"/>
</g>
</svg>
