<?xml version="1.0" encoding="utf-8"?>
<!-- Generator: Adobe Illustrator 23.0.6, SVG Export Plug-In . SVG Version: 6.00 Build 0)  -->
<svg version="1.1" id="Warstwa_1" xmlns="http://www.w3.org/2000/svg" xmlns:xlink="http://www.w3.org/1999/xlink" x="0px" y="0px"
	 viewBox="0 0 38 38" style="enable-background:new 0 0 38 38;" xml:space="preserve">
<g id="Mask_Group_4" transform="translate(-60 -756)">
	<g id="_004-pencil-and-ruler-crossed" transform="translate(60 756)">
		<path id="Path_93" d="M11.4,18.2c0.3,0.4,0.8,0.4,1.2,0.1c0.4-0.3,0.4-0.8,0.1-1.2c0,0-0.1-0.1-0.1-0.1L11,15.4l2.3-2.3
			c0.3-0.4,0.3-0.9-0.1-1.2c-0.3-0.3-0.8-0.3-1.1,0l-2.3,2.3l-2-2l2.3-2.3c0.4-0.3,0.4-0.8,0.1-1.2S9.3,8.3,9,8.6
			c0,0-0.1,0.1-0.1,0.1L6.6,11L2.1,6.5l4.4-4.4L17,12.6c0.4,0.3,0.9,0.3,1.2-0.1c0.3-0.3,0.3-0.8,0-1.1L7.1,0.2
			c-0.3-0.3-0.9-0.3-1.2,0L0.3,5.9c-0.3,0.3-0.3,0.9,0,1.2c0,0,0,0,0,0L11.4,18.2z"/>
		<path id="Path_94" d="M37.8,30.9L26.6,19.8c-0.4-0.3-0.9-0.3-1.2,0.1c-0.3,0.3-0.3,0.8,0,1.1l10.5,10.5l-4.4,4.4L27,31.4l2.3-2.3
			c0.3-0.4,0.3-0.9-0.1-1.2c-0.3-0.3-0.8-0.3-1.1,0l-2.3,2.3l-2-2l2.3-2.3c0.3-0.4,0.3-0.9-0.1-1.2c-0.3-0.3-0.8-0.3-1.1,0L22.6,27
			L21,25.4c-0.4-0.3-0.9-0.3-1.2,0.1c-0.3,0.3-0.3,0.8,0,1.1l11.1,11.1c0.3,0.3,0.9,0.3,1.2,0l5.6-5.6
			C38.1,31.8,38.1,31.2,37.8,30.9z"/>
		<path id="Path_95" d="M5.4,5.3C4.7,5.9,4.7,7,5.4,7.7s1.7,0.7,2.4,0s0.7-1.7,0-2.4C7.5,4.9,7,4.8,6.6,4.8C6.1,4.8,5.7,4.9,5.4,5.3
			z"/>
		<path id="Path_96" d="M32.7,32.6c0.7-0.7,0.7-1.7,0-2.4s-1.7-0.7-2.4,0c-0.7,0.7-0.7,1.7,0,2.4c0.3,0.3,0.8,0.5,1.2,0.5
			C32,33.1,32.4,32.9,32.7,32.6z"/>
		<path id="Path_97" d="M34.2,9.8L34.2,9.8l2.4-2.4c1.6-1.7,1.6-4.4-0.1-6c-1.7-1.6-4.3-1.6-5.9,0l-2.4,2.4l0,0l-3,3l0,0L5.7,26.3v0
			c0,0-0.1,0.1-0.1,0.1l0,0c0,0,0,0.1-0.1,0.1l0,0l-3.2,6v0l-2.2,4.2c-0.2,0.4-0.1,0.9,0.4,1.2c0.2,0.1,0.5,0.1,0.8,0l4.2-2.2h0
			l6-3.2l0,0c0,0,0.1,0,0.1-0.1l0,0c0,0,0.1,0,0.1-0.1h0L34.2,9.8z M5.3,33.8l-1.1-1.1L6,29.3L6.4,31c0,0,0,0,0,0c0,0,0,0.1,0,0.1
			l0,0c0,0,0,0.1,0,0.1l0,0c0,0,0,0.1,0.1,0.1l0,0c0,0,0,0.1,0.1,0.1c0,0,0.1,0,0.1,0.1l0,0c0,0,0.1,0,0.1,0.1l0,0c0,0,0.1,0,0.1,0
			l0,0c0,0,0.1,0,0.1,0h0L8.7,32L5.3,33.8z M8.9,30.3l3.1-3.1c0.3-0.4,0.3-0.9-0.1-1.2c-0.3-0.3-0.8-0.3-1.1,0l-3.1,3.1l-0.4-2
			L25.8,8.6L27,9.8L12.9,23.9c-0.4,0.3-0.4,0.8-0.1,1.2s0.8,0.4,1.2,0.1c0,0,0.1-0.1,0.1-0.1L28.2,11l1.2,1.2L10.9,30.7L8.9,30.3z
			 M28.8,5.5l3.6,3.6L30.6,11L27,7.4L28.8,5.5z M31.9,2.5c1-1,2.6-1,3.6-0.1c1,1,1,2.6,0.1,3.6c0,0,0,0-0.1,0.1L33.6,8L30,4.3
			L31.9,2.5z M3.4,34.3l0.4,0.4L3,35L3.4,34.3z"/>
	</g>
</g>
</svg>
