<?xml version="1.0" encoding="utf-8"?>
<!-- Generator: Adobe Illustrator 23.0.6, SVG Export Plug-In . SVG Version: 6.00 Build 0)  -->
<svg version="1.1" id="Warstwa_1" xmlns="http://www.w3.org/2000/svg" xmlns:xlink="http://www.w3.org/1999/xlink" x="0px" y="0px"
	 viewBox="0 0 29.2 29.2" style="enable-background:new 0 0 29.2 29.2;" xml:space="preserve">
<g id="instagram-kopia">
	<path id="Path_182" d="M20.5,0H8.7C3.9,0,0,3.9,0,8.7v11.8c0,4.8,3.9,8.7,8.7,8.7h11.8c4.8,0,8.7-3.9,8.7-8.7V8.7
		C29.2,3.9,25.3,0,20.5,0z M26.3,20.5c0,3.2-2.6,5.8-5.8,5.8l0,0H8.7c-3.2,0-5.8-2.6-5.8-5.8c0,0,0,0,0,0V8.7c0-3.2,2.6-5.8,5.8-5.8
		h11.8c3.2,0,5.8,2.6,5.8,5.8V20.5z"/>
	<path id="Path_183" d="M14.6,7.1c-4.2,0-7.6,3.4-7.6,7.6s3.4,7.6,7.6,7.6s7.6-3.4,7.6-7.6l0,0C22.2,10.4,18.8,7.1,14.6,7.1z
		 M14.6,19.2c-2.5,0-4.6-2.1-4.6-4.6c0-2.5,2.1-4.6,4.6-4.6c2.5,0,4.6,2.1,4.6,4.6S17.2,19.2,14.6,19.2
		C14.6,19.2,14.6,19.2,14.6,19.2z"/>
	<circle id="Ellipse_1" cx="22.2" cy="7.1" r="1.8"/>
</g>
</svg>
