<?xml version="1.0" encoding="utf-8"?>
<!-- Generator: Adobe Illustrator 23.0.6, SVG Export Plug-In . SVG Version: 6.00 Build 0)  -->
<svg version="1.1" id="Warstwa_1" xmlns="http://www.w3.org/2000/svg" xmlns:xlink="http://www.w3.org/1999/xlink" x="0px" y="0px"
	 viewBox="0 0 38 36.6" style="enable-background:new 0 0 38 36.6;" xml:space="preserve">
<g id="large" transform="translate(-60 -462)">
	<g id="_003-road-billboard" transform="translate(60 462)">
		<path id="Path_91" d="M37.1,0H0.9C0.4,0,0,0.4,0,0.9v17.2c0,0.5,0.4,0.9,0.9,0.9c0,0,0,0,0,0h36.3c0.5,0,0.9-0.4,0.9-0.9
			c0,0,0,0,0,0V0.9C38,0.4,37.6,0,37.1,0L37.1,0z M36.3,17.2H1.7V1.7h34.6L36.3,17.2z"/>
		<path id="Path_92" d="M37.1,20c-0.5,0-0.9,0.4-0.9,0.9c0,0,0,0,0,0v0.7h-5.5v-0.7c0-0.5-0.4-0.8-0.9-0.8c-0.5,0-0.8,0.4-0.8,0.8
			v0.7h-5.5v-0.7c0-0.5-0.4-0.8-0.9-0.8c-0.5,0-0.8,0.4-0.8,0.8v0.7h-5.5v-0.7c0-0.5-0.4-0.8-0.9-0.8c-0.5,0-0.8,0.4-0.8,0.8v0.7H9
			v-0.7C9,20.4,8.6,20,8.1,20c-0.5,0-0.8,0.4-0.8,0.8v0.7H1.7v-0.7c0-0.5-0.4-0.8-0.9-0.8C0.4,20,0,20.4,0,20.8v1.5
			c0,0.5,0.4,0.9,0.9,0.9c0,0,0,0,0,0H16v12.5c0,0.5,0.4,0.9,0.8,0.9c0.5,0,0.9-0.4,0.9-0.8c0,0,0,0,0-0.1V23.2h2.6v12.5
			c0,0.5,0.4,0.9,0.8,0.9c0.5,0,0.9-0.4,0.9-0.8c0,0,0,0,0-0.1V23.2h15.1c0.5,0,0.9-0.4,0.9-0.9c0,0,0,0,0,0v-1.5
			C38,20.4,37.6,20,37.1,20L37.1,20z"/>
	</g>
</g>
</svg>
