<?xml version="1.0" encoding="utf-8"?>
<!-- Generator: Adobe Illustrator 23.0.6, SVG Export Plug-In . SVG Version: 6.00 Build 0)  -->
<svg version="1.1" id="Warstwa_1" xmlns="http://www.w3.org/2000/svg" xmlns:xlink="http://www.w3.org/1999/xlink" x="0px" y="0px"
	 viewBox="0 0 29.3 29.2" style="enable-background:new 0 0 29.3 29.2;" xml:space="preserve">
<g id="XMLID_801_" transform="translate(0 -0.341)">
	<path id="XMLID_802_" d="M6.8,9.7H0.9c-0.3,0-0.5,0.2-0.5,0.5l0,0v18.9c0,0.3,0.2,0.5,0.5,0.5c0,0,0,0,0,0h5.9
		c0.3,0,0.5-0.2,0.5-0.5l0,0V10.2C7.3,9.9,7.1,9.7,6.8,9.7z"/>
	<path id="XMLID_803_" d="M3.9,0.3C1.7,0.3,0,2.1,0,4.2s1.7,3.9,3.9,3.9s3.9-1.7,3.9-3.9c0,0,0,0,0,0C7.7,2.1,6,0.3,3.9,0.3z"/>
	<path id="XMLID_804_" d="M21.8,9.3c-2,0-3.8,0.7-5.2,2.2v-1.2c0-0.3-0.2-0.5-0.5-0.5l0,0h-5.6c-0.3,0-0.5,0.2-0.5,0.5l0,0v18.9
		c0,0.3,0.2,0.5,0.5,0.5l0,0h5.9c0.3,0,0.5-0.2,0.5-0.5l0,0v-9.3c0-3.1,0.9-4.4,3.1-4.4c2.4,0,2.6,2,2.6,4.5v9.2
		c0,0.3,0.2,0.5,0.5,0.5l0,0h5.9c0.3,0,0.5-0.2,0.5-0.5l0,0V18.7C29.3,14,28.4,9.3,21.8,9.3z"/>
</g>
</svg>
