<?xml version="1.0" encoding="utf-8"?>
<!-- Generator: Adobe Illustrator 23.0.6, SVG Export Plug-In . SVG Version: 6.00 Build 0)  -->
<svg version="1.1" id="Warstwa_1" xmlns="http://www.w3.org/2000/svg" xmlns:xlink="http://www.w3.org/1999/xlink" x="0px" y="0px"
	 viewBox="0 0 24 24" style="enable-background:new 0 0 24 24;" xml:space="preserve">
<g id="Group_4" transform="translate(0.344 0)">
	<path id="Path_64" d="M18.6,14.9c-0.4-0.5-1.1-0.8-1.7-0.8c-0.7,0-1.3,0.3-1.7,0.8l-1.6,1.6c-0.1-0.1-0.3-0.1-0.4-0.2
		c-0.2-0.1-0.4-0.2-0.5-0.3c-1.6-1-3-2.3-4.2-3.8c-0.5-0.7-1-1.4-1.4-2.2c0.4-0.4,0.8-0.8,1.2-1.2c0.1-0.1,0.3-0.3,0.4-0.4
		c1-0.8,1.1-2.3,0.2-3.3C8.9,5.1,8.8,5,8.7,4.9L7.4,3.6C7.2,3.4,7,3.2,6.9,3.1c-0.3-0.3-0.6-0.6-1-0.9C5.5,1.7,4.9,1.4,4.2,1.4
		C3.6,1.4,3,1.7,2.5,2.1l0,0L0.8,3.9c-0.6,0.6-1,1.5-1.1,2.4C-0.4,7.5-0.2,8.8,0.3,10c0.9,2.4,2.2,4.5,3.9,6.5
		c2.2,2.6,4.9,4.7,7.9,6.2c1.4,0.7,2.9,1.2,4.5,1.3c0.1,0,0.2,0,0.3,0c1.1,0,2.2-0.4,2.9-1.3c0,0,0,0,0,0c0.3-0.3,0.6-0.6,0.9-0.9
		c0.2-0.2,0.4-0.4,0.7-0.7c0.5-0.5,0.7-1.1,0.8-1.8c0-0.7-0.3-1.3-0.8-1.7L18.6,14.9z M20.4,20.2C20.4,20.2,20.4,20.2,20.4,20.2
		c-0.2,0.2-0.4,0.4-0.6,0.6c-0.3,0.3-0.7,0.7-1,1c-0.5,0.5-1.2,0.8-1.9,0.8c-0.1,0-0.2,0-0.2,0c-1.4-0.1-2.7-0.5-4-1.2
		c-2.9-1.4-5.4-3.4-7.5-5.9c-1.6-1.8-2.8-3.9-3.7-6.1C1.2,8.5,1,7.4,1,6.3c0-0.6,0.3-1.1,0.7-1.5l1.7-1.7c0.2-0.2,0.5-0.3,0.8-0.4
		c0.3,0,0.5,0.1,0.7,0.4l0,0C5.3,3.4,5.6,3.7,5.9,4c0.2,0.2,0.3,0.3,0.5,0.5l1.4,1.4C8.2,6.2,8.3,6.8,8,7.3C7.9,7.3,7.9,7.4,7.8,7.5
		C7.6,7.6,7.5,7.8,7.3,7.9C6.9,8.3,6.5,8.8,6.1,9.1c0,0,0,0,0,0c-0.3,0.3-0.4,0.7-0.3,1.2l0,0c0.4,1,1,1.9,1.6,2.7l0,0
		c1.3,1.6,2.8,3,4.5,4.1c0.2,0.1,0.4,0.2,0.6,0.3c0.2,0.1,0.4,0.2,0.5,0.3c0,0,0,0,0.1,0c0.2,0.1,0.3,0.1,0.5,0.1
		c0.3,0,0.6-0.1,0.8-0.3l1.7-1.7c0.2-0.2,0.5-0.4,0.8-0.4c0.3,0,0.5,0.2,0.7,0.4l0,0l2.8,2.8c0.4,0.3,0.5,1,0.2,1.4
		C20.6,20.1,20.5,20.1,20.4,20.2z"/>
	<path id="Path_65" d="M12.6,5.7c2.7,0.5,4.8,2.6,5.3,5.3c0.1,0.3,0.3,0.6,0.7,0.6c0,0,0.1,0,0.1,0c0.4-0.1,0.6-0.4,0.6-0.8
		c0,0,0,0,0,0c-0.6-3.3-3.1-5.9-6.4-6.4c-0.4-0.1-0.7,0.2-0.8,0.6C12,5.3,12.2,5.6,12.6,5.7C12.6,5.7,12.6,5.7,12.6,5.7z"/>
	<path id="Path_66" d="M23.6,10.6C22.7,5.2,18.4,0.9,13,0c-0.4-0.1-0.7,0.2-0.8,0.5c-0.1,0.4,0.2,0.7,0.5,0.8c0,0,0,0,0,0
		c4.8,0.8,8.6,4.6,9.5,9.5c0.1,0.3,0.3,0.6,0.7,0.6c0,0,0.1,0,0.1,0C23.4,11.3,23.7,11,23.6,10.6C23.6,10.6,23.6,10.6,23.6,10.6z"/>
</g>
</svg>
