<?xml version="1.0" encoding="utf-8"?>
<!-- Generator: Adobe Illustrator 23.0.6, SVG Export Plug-In . SVG Version: 6.00 Build 0)  -->
<svg version="1.1" id="Warstwa_1" xmlns="http://www.w3.org/2000/svg" xmlns:xlink="http://www.w3.org/1999/xlink" x="0px" y="0px"
	 viewBox="0 0 38 38" style="enable-background:new 0 0 38 38;" xml:space="preserve">
<g id="print" transform="translate(-60 -364)">
	<g id="_001-brochure-folded" transform="translate(60 364)">
		<path id="Path_77" d="M37.4,3.5L25.3,0h0c0,0-0.1,0-0.1,0h0c0,0-0.1,0-0.1,0l0,0c0,0-0.1,0-0.1,0h0c0,0-0.1,0-0.1,0h0L13,3.4
			L1.1,0C0.6-0.1,0.2,0.2,0,0.6c0,0.1,0,0.2,0,0.2v32.8c0,0.4,0.3,0.7,0.6,0.8L12.7,38h0c0,0,0.1,0,0.1,0h0c0.1,0,0.1,0,0.2,0h0
			c0,0,0.1,0,0.1,0h0L25,34.6L36.9,38c0.5,0.1,0.9-0.1,1.1-0.6c0-0.1,0-0.2,0-0.2V4.3C38,3.9,37.7,3.6,37.4,3.5z M13.8,4.9L24.2,2
			v31.1L13.8,36V4.9z M1.7,2l10.4,2.9v31L1.7,33.1V2z M36.3,36l-10.4-3V2l10.4,2.9V36z"/>
		<path id="Path_78" d="M9.7,31l-5.2-1.5c-0.5-0.1-0.9,0.2-1,0.6c-0.1,0.4,0.1,0.9,0.6,1l5.2,1.5c0.5,0.1,0.9-0.1,1.1-0.6
			C10.5,31.7,10.2,31.2,9.7,31C9.8,31,9.8,31,9.7,31L9.7,31z"/>
		<path id="Path_79" d="M9.7,26.7l-5.2-1.5c-0.5-0.1-0.9,0.1-1.1,0.6s0.1,0.9,0.6,1.1c0,0,0,0,0,0l5.2,1.5c0.5,0.1,0.9-0.1,1.1-0.6
			C10.5,27.4,10.2,26.9,9.7,26.7C9.8,26.7,9.8,26.7,9.7,26.7z"/>
		<path id="Path_80" d="M9.7,22.4L4.5,21c-0.5-0.1-0.9,0.2-1,0.6c-0.1,0.4,0.1,0.9,0.6,1l5.2,1.5c0.5,0.1,0.9-0.1,1.1-0.6
			C10.5,23.1,10.2,22.6,9.7,22.4C9.8,22.4,9.8,22.4,9.7,22.4z"/>
		<path id="Path_81" d="M9.7,6.8L4.5,5.3C4.1,5.2,3.6,5.4,3.5,5.9c0,0.1,0,0.2,0,0.2v11.3c0,0.4,0.3,0.7,0.6,0.8l5.2,1.5
			c0.5,0.1,0.9-0.1,1.1-0.6c0-0.1,0-0.2,0-0.2V7.6C10.4,7.2,10.1,6.9,9.7,6.8z M8.7,17.8l-3.5-1V7.3l3.5,1V17.8z"/>
		<path id="Path_82" d="M16.4,8.5c0.1,0,0.2,0,0.2,0L21.8,7c0.5-0.1,0.7-0.6,0.6-1c-0.1-0.5-0.6-0.7-1-0.6c0,0,0,0,0,0l-5.2,1.5
			c-0.5,0.1-0.7,0.6-0.6,1.1C15.7,8.2,16,8.5,16.4,8.5z"/>
		<path id="Path_83" d="M21.4,29.6L16.2,31c-0.5,0.1-0.7,0.6-0.6,1c0.1,0.5,0.6,0.7,1,0.6c0,0,0,0,0,0l5.2-1.5
			c0.5-0.1,0.7-0.6,0.6-1.1C22.3,29.7,21.8,29.4,21.4,29.6z"/>
		<path id="Path_84" d="M21.4,25.3l-5.2,1.5c-0.5,0.1-0.7,0.6-0.6,1c0.1,0.5,0.6,0.7,1,0.6c0,0,0,0,0,0l5.2-1.5
			c0.5-0.1,0.7-0.6,0.6-1C22.3,25.4,21.9,25.1,21.4,25.3C21.4,25.2,21.4,25.3,21.4,25.3z"/>
		<path id="Path_85" d="M21.4,21l-5.2,1.5c-0.5,0.1-0.7,0.6-0.6,1c0.1,0.5,0.6,0.7,1,0.6c0,0,0,0,0,0l5.2-1.5c0.5-0.1,0.7-0.6,0.6-1
			C22.3,21.1,21.9,20.8,21.4,21C21.4,20.9,21.4,21,21.4,21z"/>
		<path id="Path_86" d="M21.4,16.7l-5.2,1.5c-0.5,0.1-0.7,0.6-0.6,1c0.1,0.5,0.6,0.7,1,0.6c0,0,0,0,0,0l5.2-1.5
			c0.5-0.1,0.7-0.6,0.6-1C22.3,16.8,21.9,16.5,21.4,16.7C21.4,16.6,21.4,16.7,21.4,16.7z"/>
		<path id="Path_87" d="M28.2,7l5.2,1.5c0.5,0.1,0.9-0.2,1-0.6c0.1-0.4-0.1-0.9-0.6-1l-5.2-1.5c-0.5-0.1-0.9,0.2-1,0.6
			C27.6,6.4,27.8,6.8,28.2,7L28.2,7z"/>
		<path id="Path_88" d="M28.2,11.3l5.2,1.5c0.5,0.1,0.9-0.2,1-0.6c0.1-0.4-0.1-0.9-0.6-1l-5.2-1.5c-0.5-0.1-0.9,0.2-1,0.6
			C27.6,10.7,27.8,11.1,28.2,11.3L28.2,11.3z"/>
		<path id="Path_89" d="M28.2,15.6l5.2,1.5c0.5,0.1,0.9-0.2,1-0.6c0.1-0.4-0.1-0.9-0.6-1l-5.2-1.5c-0.5-0.1-0.9,0.2-1,0.6
			C27.6,15,27.8,15.4,28.2,15.6z"/>
		<path id="Path_90" d="M28.2,31.2l5.2,1.5c0.5,0.1,0.9-0.1,1.1-0.6c0-0.1,0-0.2,0-0.2V20.5c0-0.4-0.3-0.7-0.6-0.8l-5.2-1.5
			c-0.5-0.1-0.9,0.1-1.1,0.6c0,0.1,0,0.2,0,0.2v11.3C27.6,30.8,27.9,31.1,28.2,31.2z M29.3,20.2l3.5,1v9.6l-3.5-1L29.3,20.2z"/>
	</g>
</g>
</svg>
