<?xml version="1.0" encoding="utf-8"?>
<!-- Generator: Adobe Illustrator 23.0.6, SVG Export Plug-In . SVG Version: 6.00 Build 0)  -->
<svg version="1.1" id="Warstwa_1" xmlns="http://www.w3.org/2000/svg" xmlns:xlink="http://www.w3.org/1999/xlink" x="0px" y="0px"
	 viewBox="0 0 50.1 50.1" style="enable-background:new 0 0 50.1 50.1;" xml:space="preserve">
<g>
	<path d="M16.4,14.5l-1.1,1.6h17.4c3.4,0,6.2-2.8,6.2-6.2v0c0-3.4-2.8-6.2-6.2-6.2H15.2l1.1,1.6C18.3,8.1,18.3,11.8,16.4,14.5z
		 M18.9,5.8h13.7c2.3,0,4.2,1.9,4.2,4.2c0,2.3-1.9,4.2-4.2,4.2H18.9C20.1,11.4,20.1,8.4,18.9,5.8z"/>
	<path d="M25.3,43.4c0,0.5-0.1,1-0.3,1.5l-0.5,1.3h18.8c1.6,0,2.9-1.3,2.9-2.9l0-2.9h-21V43.4z M27.3,43.4v-0.9h17v0.9
		c0,0.5-0.4,0.9-0.9,0.9H27.3C27.3,44,27.3,43.7,27.3,43.4z"/>
	<path d="M42.6,36.8V24c0-2.6-1.1-5.2-2.9-7c3.5-3.5,4-9.1,0.9-13.1C38.6,1.4,35.7,0,32.6,0H9.9c0,0,0,0,0,0c-2.6,0-5.1,1-7,2.9
		C1,4.8,0,7.3,0,9.9c0,2.7,1.1,5.2,2.9,7c-1.6,1.6-2.6,3.6-2.9,5.8c-0.3,2.6,0.4,5.2,2,7.3c1.9,2.4,4.8,3.8,7.8,3.8c0,0,0,0,0,0h4.2
		v9.5c0,3.7,3,6.6,6.6,6.6h22.7c3.7,0,6.6-3,6.6-6.6v-6.6H42.6z M48.1,43.4c0,2.6-2.1,4.6-4.6,4.6H20.7c-2.6,0-4.6-2.1-4.6-4.6V31.9
		H9.9c0,0,0,0,0,0c-2.4,0-4.8-1.1-6.3-3.1c-1.3-1.7-1.9-3.7-1.6-5.8c0.3-2.1,1.3-4,3-5.3l1-0.8l-1-0.8C3.1,14.7,2,12.4,2,9.9
		C2,5.5,5.6,2,9.9,2c0,0,0,0,0,0h22.7c2.5,0,4.7,1.1,6.3,3.1c2.7,3.4,2,8.4-1.4,11.1l-1,0.8l1,0.8c1.9,1.5,3.1,3.8,3.1,6.3v14.8h7.5
		V43.4z"/>
	<path d="M38.8,24c0-3.4-2.8-6.2-6.2-6.2H15.2l1.1,1.6c1,1.3,1.5,2.9,1.5,4.6v19.4l0,0.1c0,0.8,0.3,1.5,0.9,2c0.5,0.5,1.2,0.8,2,0.8
		c0,0,0,0,0.1,0c0.8,0,1.5-0.3,2-0.9c0.5-0.6,0.8-1.3,0.8-2v-4.6h15.2V24z M36.8,36.8H21.6l0,6.7c0,0.2-0.1,0.5-0.2,0.6
		c-0.2,0.2-0.4,0.3-0.6,0.3c-0.2,0-0.5-0.1-0.6-0.2c-0.2-0.2-0.3-0.4-0.3-0.6l-1-0.1l1,0V24c0-1.5-0.3-2.9-0.9-4.2h13.7
		c2.3,0,4.2,1.9,4.2,4.2V36.8z"/>
	<path d="M9.9,17.8c-3.4,0-6.2,2.8-6.2,6.2v0c0,3.4,2.8,6.2,6.2,6.2c3.4,0,6.2-2.8,6.2-6.2S13.3,17.8,9.9,17.8z M9.9,28.2
		c-2.3,0-4.2-1.9-4.2-4.2c0-2.3,1.9-4.2,4.2-4.2s4.2,1.9,4.2,4.2C14.1,26.3,12.2,28.2,9.9,28.2z"/>
	<path d="M16.1,9.9c0-3.4-2.8-6.2-6.2-6.2S3.8,6.5,3.8,9.9v0c0,3.4,2.8,6.2,6.2,6.2C13.3,16.1,16.1,13.3,16.1,9.9z M5.8,9.9
		c0-2.3,1.9-4.2,4.2-4.2s4.2,1.9,4.2,4.2s-1.9,4.2-4.2,4.2C7.6,14.1,5.8,12.2,5.8,9.9z"/>
</g>
</svg>
