<?xml version="1.0" encoding="utf-8"?>
<!-- Generator: Adobe Illustrator 23.0.6, SVG Export Plug-In . SVG Version: 6.00 Build 0)  -->
<svg version="1.1" id="Warstwa_1" xmlns="http://www.w3.org/2000/svg" xmlns:xlink="http://www.w3.org/1999/xlink" x="0px" y="0px"
	 viewBox="0 0 36.8 38" style="enable-background:new 0 0 36.8 38;" xml:space="preserve">
<g id="_005-cup" transform="translate(60 658)">
	<path id="Path_98" d="M-34.1-653.9v-3.3c0-0.5-0.4-0.9-0.9-0.9c0,0,0,0,0,0h-24.2c-0.5,0-0.9,0.4-0.9,0.9l0,0v33.1
		c0,0.5,0.4,0.9,0.9,0.9c0,0,0,0,0,0h0.1c0.4,1.8,2,3.1,3.9,3.1H-39c1.9,0,3.5-1.3,3.9-3.1h0.1c0.5,0,0.9-0.4,0.9-0.9l0,0v-6.4
		c6.5-0.5,11.3-6.1,10.9-12.6C-23.6-648.8-28.3-653.5-34.1-653.9z M-34.9-632.1c-0.5,0-0.9,0.4-0.9,0.9c0,0,0,0,0,0v6.4h-13.1
		c-0.5,0-0.9,0.4-0.9,0.8c0,0.5,0.4,0.9,0.8,0.9c0,0,0,0,0.1,0h12.1c-0.4,0.9-1.2,1.4-2.1,1.4h-16.2c-0.9,0-1.8-0.6-2.1-1.4h5
		c0.5,0,0.8-0.4,0.8-0.9c0-0.5-0.4-0.8-0.8-0.8h-6.1v-31.4h22.5v3.2c0,0.5,0.4,0.9,0.9,0.9l0,0c5.5,0.1,10,4.6,9.9,10.1
		C-25-636.6-29.5-632.2-34.9-632.1L-34.9-632.1z"/>
	<path id="Path_99" d="M-34.9-650.4c-0.5,0-0.9,0.4-0.9,0.9l0,0v14.8c0,0.5,0.4,0.9,0.9,0.9c0,0,0,0,0,0c4.6-0.1,8.2-3.8,8.2-8.4
		C-26.8-646.7-30.4-650.4-34.9-650.4L-34.9-650.4z M-34.1-635.7v-13c3.6,0.5,6.1,3.8,5.6,7.3C-28.8-638.4-31.1-636.1-34.1-635.7z"/>
	<path id="Path_100" d="M-41.3-633.6c-0.4,0-0.7,0.2-0.8,0.6c-0.4,0.2-0.7,0.7-0.5,1.1c0.1,0.3,0.4,0.6,0.8,0.6h0.5
		c0.5,0,0.9-0.4,0.9-0.9c0,0,0,0,0,0v-0.5C-40.4-633.2-40.8-633.6-41.3-633.6z"/>
	<path id="Path_101" d="M-44.6-633.1h-1c-0.5,0-0.9,0.4-0.9,0.8c0,0.5,0.4,0.9,0.8,0.9c0,0,0,0,0.1,0h1c0.5,0,0.8-0.4,0.8-0.9
		C-43.8-632.7-44.2-633.1-44.6-633.1z"/>
	<path id="Path_102" d="M-48.5-633.1h-1c-0.5,0-0.9,0.4-0.9,0.8c0,0.5,0.4,0.9,0.8,0.9c0,0,0,0,0.1,0h1c0.5,0,0.9-0.4,0.9-0.8
		C-47.6-632.7-47.9-633.1-48.5-633.1C-48.4-633.1-48.4-633.1-48.5-633.1z"/>
	<path id="Path_103" d="M-52-633c-0.2-0.4-0.7-0.7-1.1-0.5c-0.3,0.1-0.6,0.4-0.6,0.8v0.5c0,0.5,0.4,0.9,0.9,0.9c0,0,0,0,0,0h0.5
		c0.5,0,0.9-0.4,0.9-0.9C-51.4-632.6-51.6-632.9-52-633z"/>
	<path id="Path_104" d="M-52.8-639.2c0.5,0,0.9-0.4,0.9-0.9l0,0v-1.1c0-0.5-0.4-0.9-0.8-0.9c-0.5,0-0.9,0.4-0.9,0.8c0,0,0,0,0,0.1
		v1.1C-53.7-639.6-53.3-639.2-52.8-639.2z"/>
	<path id="Path_105" d="M-52.8-643.4c0.5,0,0.9-0.4,0.9-0.9v-1.1c0-0.5-0.4-0.9-0.8-0.9c-0.5,0-0.9,0.4-0.9,0.8c0,0,0,0,0,0.1v1.1
		C-53.7-643.7-53.3-643.4-52.8-643.4z"/>
	<path id="Path_106" d="M-52.8-635c0.5,0,0.9-0.4,0.9-0.9l0,0v-1.1c0-0.5-0.4-0.8-0.9-0.8c-0.5,0-0.8,0.4-0.8,0.8v1.1
		C-53.7-635.4-53.3-635-52.8-635C-52.8-635-52.8-635-52.8-635z"/>
	<path id="Path_107" d="M-52.3-649.8h-0.5c-0.5,0-0.9,0.4-0.9,0.9v0.5c0,0.5,0.4,0.9,0.8,0.9c0.4,0,0.7-0.2,0.8-0.6
		c0.4-0.2,0.7-0.7,0.5-1.1C-51.6-649.5-51.9-649.8-52.3-649.8z"/>
	<path id="Path_108" d="M-48.5-649.8h-1c-0.5,0-0.9,0.4-0.9,0.8c0,0.5,0.4,0.9,0.8,0.9c0,0,0,0,0.1,0h1c0.5,0,0.8-0.4,0.8-0.9
		C-47.6-649.4-48-649.8-48.5-649.8z"/>
	<path id="Path_109" d="M-44.6-649.8h-1c-0.5,0-0.9,0.4-0.9,0.8c0,0.5,0.4,0.9,0.8,0.9c0,0,0,0,0.1,0h1c0.5,0,0.8-0.4,0.8-0.9
		C-43.8-649.4-44.2-649.8-44.6-649.8z"/>
	<path id="Path_110" d="M-41.3-649.8h-0.5c-0.5,0-0.9,0.4-0.9,0.9c0,0.4,0.2,0.7,0.6,0.8c0.2,0.4,0.6,0.7,1.1,0.5
		c0.3-0.1,0.6-0.5,0.6-0.8v-0.5C-40.4-649.4-40.8-649.8-41.3-649.8z"/>
	<path id="Path_111" d="M-41.3-642c-0.5,0-0.9,0.4-0.9,0.9c0,0,0,0,0,0v1.1c0,0.5,0.4,0.8,0.9,0.8c0.5,0,0.8-0.4,0.8-0.8v-1.1
		C-40.4-641.6-40.8-642-41.3-642z"/>
	<path id="Path_112" d="M-41.3-646.1c-0.5,0-0.9,0.4-0.9,0.9l0,0v1.1c0,0.5,0.4,0.9,0.8,0.9s0.9-0.4,0.9-0.8c0,0,0,0,0-0.1v-1.1
		C-40.4-645.8-40.8-646.1-41.3-646.1z"/>
	<path id="Path_113" d="M-41.3-637.8c-0.5,0-0.9,0.4-0.9,0.9c0,0,0,0,0,0v1.1c0,0.5,0.4,0.8,0.9,0.8c0.5,0,0.8-0.4,0.8-0.8v-1.1
		C-40.4-637.4-40.8-637.8-41.3-637.8z"/>
</g>
</svg>
