<?xml version="1.0" encoding="utf-8"?>
<!-- Generator: Adobe Illustrator 23.0.6, SVG Export Plug-In . SVG Version: 6.00 Build 0)  -->
<svg version="1.1" id="Warstwa_1" xmlns="http://www.w3.org/2000/svg" xmlns:xlink="http://www.w3.org/1999/xlink" x="0px" y="0px"
	 viewBox="0 0 48.1 48" style="enable-background:new 0 0 48.1 48;" xml:space="preserve">
<g id="quotation_1_" transform="translate(0 -0.499)">
	<g id="Group_59" transform="translate(6.018 7.792)">
		<g id="Group_58">
			<path id="Path_167" d="M6.6,6.7H4.9c0.3-1.9,1.3-2,1.8-2c0.5,0,0.9-0.4,0.9-0.9V0.9C7.5,0.4,7.1,0,6.6,0c0,0,0,0-0.1,0
				C3.5,0.2,0,1.7,0,7.9v4.9c0,0.8,0.7,1.5,1.5,1.5h5.1c0.8,0,1.5-0.7,1.5-1.5V8.2C8,7.4,7.4,6.7,6.6,6.7z M6.2,12.4H1.9V7.9
				c0-4.3,1.9-5.5,3.7-5.9v1C4.4,3.4,2.9,4.5,2.9,7.7c0,0.5,0.4,0.9,0.9,0.9h0h2.3V12.4z"/>
		</g>
	</g>
	<g id="Group_61" transform="translate(35.779 24.499)">
		<g id="Group_60">
			<path id="Path_168" d="M6,0H1.4C0.6,0,0,0.6,0,1.4v4.1c0,0.8,0.6,1.4,1.4,1.4h1.4C2.6,8.5,1.8,8.6,1.3,8.6C0.9,8.6,0.5,9,0.5,9.5
				v2.5c0,0.5,0.4,0.9,0.9,0.9h0.1c2.7-0.2,5.9-1.5,5.9-7.2V1.4C7.4,0.6,6.8,0,6,0z M5.5,5.8c0,3.7-1.6,4.8-3.2,5.2v-0.7l0,0
				C3.5,9.9,4.8,8.9,4.8,6c0-0.5-0.4-0.9-0.9-0.9h-2V1.9h3.7V5.8z"/>
		</g>
	</g>
	<g id="Group_63" transform="translate(27.057 24.499)">
		<g id="Group_62">
			<path id="Path_169" d="M6,0H1.4C0.6,0,0,0.6,0,1.4v4.1c0,0.8,0.6,1.4,1.4,1.4h1.4C2.6,8.5,1.8,8.6,1.3,8.6C0.9,8.6,0.5,9,0.5,9.5
				v2.5c0,0.5,0.4,0.9,0.9,0.9h0.1c2.7-0.2,5.9-1.5,5.9-7.2V1.4C7.4,0.6,6.8,0,6,0z M5.5,5.8c0,3.7-1.6,4.8-3.2,5.2v-0.7
				C3.5,9.9,4.8,8.9,4.8,6c0-0.5-0.4-0.9-0.9-0.9h-2V1.9h3.7V5.8z"/>
		</g>
	</g>
	<g id="Group_65" transform="translate(15.622 7.792)">
		<g id="Group_64">
			<path id="Path_170" d="M26.9,10.6h-3c-0.5,0-0.9,0.4-0.9,0.9s0.4,0.9,0.9,0.9l0,0h3c2.1,0,3.7,1.7,3.7,3.7v14
				c0,2.1-1.7,3.7-3.7,3.7h-7.2c-0.2,0-0.5,0.1-0.7,0.3l-3.4,3.4v-2.7c0-0.5-0.4-0.9-0.9-0.9h-2.5c-2.1,0-3.7-1.7-3.7-3.7v-14
				c0-2.1,1.7-3.7,3.7-3.7h3.5c0.5,0,0.9-0.4,0.9-0.9s-0.4-0.9-0.9-0.9h-3.5c-1.6,0-3.1,0.7-4.1,1.8V8.2c0-0.8-0.7-1.5-1.5-1.5H4.9
				c0.3-1.9,1.3-2,1.8-2c0.5,0,0.9-0.4,0.9-0.9V0.9C7.5,0.4,7.1,0,6.6,0c0,0,0,0-0.1,0C3.5,0.2,0,1.7,0,7.9v4.9
				c0,0.8,0.7,1.5,1.5,1.5h5.1c0.1,0,0.2,0,0.3,0c-0.2,0.6-0.4,1.3-0.4,2v14c0,3.1,2.5,5.6,5.6,5.6h1.6v4c0,0.5,0.4,0.9,0.9,0.9
				c0.2,0,0.5-0.1,0.7-0.3l4.7-4.7h6.8c3.1,0,5.6-2.5,5.6-5.6v-14C32.4,13.1,30,10.6,26.9,10.6z M6.2,12.4H1.9V7.9
				c0-4.3,1.9-5.5,3.7-5.9v1C4.4,3.4,2.9,4.5,2.9,7.7c0,0.5,0.4,0.9,0.9,0.9h2.3L6.2,12.4z"/>
		</g>
	</g>
	<g id="Group_67" transform="translate(34.661 18.346)">
		<g id="Group_66">
			<path id="Path_171" d="M1.6,0.3c-0.4-0.4-1-0.4-1.3,0s-0.4,1,0,1.3c0.4,0.4,1,0.4,1.3,0c0.2-0.2,0.3-0.4,0.3-0.7
				C1.9,0.7,1.8,0.5,1.6,0.3z"/>
		</g>
	</g>
	<g id="Group_69" transform="translate(27.804 15.028)">
		<g id="Group_68">
			<path id="Path_172" d="M1.6,0.3c-0.4-0.4-1-0.4-1.3,0s-0.4,1,0,1.3c0.4,0.4,1,0.4,1.3,0c0.2-0.2,0.3-0.4,0.3-0.7
				C1.9,0.7,1.8,0.5,1.6,0.3z"/>
		</g>
	</g>
	<g id="Group_71" transform="translate(0 0.499)">
		<g id="Group_70">
			<path id="Path_173" d="M23.3,0h-17C2.8,0,0,2.8,0,6.3v16.1c0,3.5,2.8,6.3,6.3,6.3h2l5.5,5.5c0.4,0.4,1,0.4,1.3,0
				c0.2-0.2,0.3-0.4,0.3-0.7v-4.8h3.3c0.5,0,0.9-0.4,0.9-0.9c0-0.5-0.4-0.9-0.9-0.9l0,0h-4.2c-0.5,0-0.9,0.4-0.9,0.9v3.5l-4.2-4.2
				C9.2,27,9,26.9,8.7,26.9H6.3c-2.5,0-4.5-2-4.5-4.5V6.3c0-2.5,2-4.5,4.5-4.5h17c2.5,0,4.4,2,4.5,4.5v5.6c0,0.5,0.4,0.9,0.9,0.9
				c0.5,0,0.9-0.4,0.9-0.9V6.3C29.7,2.8,26.8,0,23.3,0z"/>
		</g>
	</g>
</g>
</svg>
