<?xml version="1.0" encoding="utf-8"?>
<!-- Generator: Adobe Illustrator 23.0.6, SVG Export Plug-In . SVG Version: 6.00 Build 0)  -->
<svg version="1.1" id="Warstwa_1" xmlns="http://www.w3.org/2000/svg" xmlns:xlink="http://www.w3.org/1999/xlink" x="0px" y="0px"
	 viewBox="0 0 50 50" style="enable-background:new 0 0 50 50;" xml:space="preserve">
<g>
	<path d="M35.6,37.5v6.2l8-8h-6.2C36.4,35.6,35.6,36.4,35.6,37.5z M36.6,37.5c0-0.5,0.4-0.9,0.9-0.9h3.7l-4.6,4.6V37.5z"/>
	<path d="M4.8,6.6v5.6h7.6V4.8H6.6C5.6,4.8,4.8,5.6,4.8,6.6z M5.8,6.6c0-0.5,0.4-0.9,0.9-0.9h4.7v5.5H5.8V6.6z"/>
	<path d="M6.6,45.2h5.7V40h-4v-3.8h4v-3.8h-4v-3.8h4V25h-4v-3.8h4V16H4.8v27.4C4.8,44.4,5.6,45.2,6.6,45.2z M5.8,17h5.6v3.2h-4V26h4
		v1.8h-4v5.8h4v1.8h-4V41h4v3.2H6.6c-0.5,0-0.9-0.4-0.9-0.9V17z"/>
	<path d="M43.4,2H6.6C4.1,2,2,4.1,2,6.6v36.7C2,45.9,4.1,48,6.6,48h28.5L48,35.1V6.6C48,4.1,45.9,2,43.4,2z M13.3,22.2h-4V24h4v5.8
		h-4v1.8h4v5.8h-4V39h4v7.2H6.6c-1.6,0-2.9-1.3-2.9-2.9V15h9.6V22.2z M13.3,13.2H3.8V6.6C3.8,5,5,3.8,6.6,3.8h6.7V13.2z M34.6,46
		v-8.6c0-1.6,1.3-2.9,2.9-2.9H46L34.6,46z M46.2,32.8h-8.8c-2.5,0-4.6,2.1-4.6,4.6v8.8H15.1V15h31.2V32.8z M46.2,13.2h-7.1V9.5h-1.8
		v3.8h-5.8V9.5h-1.8v3.8h-5.8V9.5h-1.8v3.8h-7.3V3.8h28.3c1.6,0,2.9,1.3,2.9,2.9V13.2z"/>
	<path d="M43.4,4.8H16.1v7.5h5.3V8.5h3.8v3.8h3.8V8.5h3.8v3.8h3.8V8.5h3.8v3.8h5.1V6.6C45.2,5.6,44.4,4.8,43.4,4.8z M44.2,11.2h-3.1
		V7.5h-5.8v3.8h-1.8V7.5h-5.8v3.8h-1.8V7.5h-5.8v3.8h-3.3V5.8h26.3c0.5,0,0.9,0.4,0.9,0.9V11.2z"/>
	<path d="M31.8,37.5c0-3.1,2.5-5.6,5.6-5.6h7.8V16H16.1v29.2h15.8V37.5z M30.8,44.2H17.1V17h27.2v13.8h-6.8c-3.6,0-6.6,3-6.6,6.6
		V44.2z"/>
	<path d="M43.4,0H6.6C3,0,0,3,0,6.6v36.8C0,47,3,50,6.6,50h29.3L50,35.9V6.6C50,3,47,0,43.4,0z M49,35.5L35.5,49H6.6
		C3.5,49,1,46.5,1,43.4V6.6C1,3.5,3.5,1,6.6,1h36.8C46.5,1,49,3.5,49,6.6V35.5z"/>
</g>
</svg>
