<?xml version="1.0" encoding="utf-8"?>
<!-- Generator: Adobe Illustrator 23.0.6, SVG Export Plug-In . SVG Version: 6.00 Build 0)  -->
<svg version="1.1" id="Warstwa_1" xmlns="http://www.w3.org/2000/svg" xmlns:xlink="http://www.w3.org/1999/xlink" x="0px" y="0px"
	 viewBox="0 0 26 27" style="enable-background:new 0 0 26 27;" xml:space="preserve">
<style type="text/css">
	.st0{enable-background:new    ;}
</style>
<path id="search" class="st0" d="M25.6,24.6l-6.4-6.7c3.9-4.6,3.3-11.5-1.3-15.3S6.4-0.7,2.5,3.9s-3.3,11.5,1.3,15.3
	c2,1.6,4.4,2.5,7,2.5c2.2,0,4.4-0.7,6.2-2l6.5,6.7c0.5,0.6,1.4,0.6,2,0C26.2,26,26.2,25.1,25.6,24.6L25.6,24.6z M10.9,2.8
	c4.4,0,8,3.6,8,8s-3.6,8-8,8s-8-3.6-8-8c0,0,0,0,0,0C2.8,6.4,6.4,2.8,10.9,2.8z"/>
</svg>
