<?xml version="1.0" encoding="utf-8"?>
<!-- Generator: Adobe Illustrator 23.0.6, SVG Export Plug-In . SVG Version: 6.00 Build 0)  -->
<svg version="1.1" id="Warstwa_1" xmlns="http://www.w3.org/2000/svg" xmlns:xlink="http://www.w3.org/1999/xlink" x="0px" y="0px"
	 viewBox="0 0 50.1 50.1" style="enable-background:new 0 0 50.1 50.1;" xml:space="preserve">
<g>
	<path d="M3.8,37c0,1.6,1.3,2.9,2.9,2.9h3.8V32H3.8V37z M5.8,33.8h2.7v3.8H6.6c-0.5,0-0.9-0.4-0.9-0.9V33.8z"/>
	<path d="M43.4,14.9h-1.8V0h-5.8v14.9h-9.5l7-7l-4.1-4.1l-1.5,1.5V0h-5.8v5.3l-1.4-1.4L16.6,8l7,7h-9.4V0H8.4v14.9H6.6
		c-3.7,0-6.6,3-6.6,6.6v15.2c0,3.7,3,6.6,6.6,6.6h1.8v6.7h33.2v-6.7h1.8c3.7,0,6.6-3,6.6-6.6V21.6C50.1,17.9,47.1,14.9,43.4,14.9z
		 M19.5,8.2l1.2-1.2l3.4,3.4V2.2h1.8v8.2l3.5-3.5l1.2,1.2L25,13.7L19.5,8.2z M48.1,37c0,2.6-2.1,4.6-4.6,4.6h-3.8v6.7H10.4v-6.7H6.6
		C4.1,41.6,2,39.5,2,37V21.8c0-2.6,2.1-4.6,4.6-4.6h3.8V2.2h1.8v14.9h25.7V2.2h1.8v14.9h3.8c2.6,0,4.6,2.1,4.6,4.6V37z"/>
	<path d="M39.6,39.9h3.8c1.6,0,2.9-1.3,2.9-2.9V32h-6.7V39.9z M41.6,33.8h2.7v2.9c0,0.5-0.4,0.9-0.9,0.9h-1.8V33.8z"/>
	<path d="M43.4,18.9H6.6c-1.6,0-2.9,1.3-2.9,2.9v8.5h42.6v-8.5C46.3,20.2,45,18.9,43.4,18.9z M44.3,28.1H5.8v-6.5
		c0-0.5,0.4-0.9,0.9-0.9h36.8c0.5,0,0.9,0.4,0.9,0.9V28.1z"/>
	<path d="M12.2,46.5h25.7V32H12.2V46.5z M14.2,33.8h21.7v10.5H14.2V33.8z"/>
</g>
</svg>
