<?xml version="1.0" encoding="utf-8"?>
<!-- Generator: Adobe Illustrator 23.0.6, SVG Export Plug-In . SVG Version: 6.00 Build 0)  -->
<svg version="1.1" id="Warstwa_1" xmlns="http://www.w3.org/2000/svg" xmlns:xlink="http://www.w3.org/1999/xlink" x="0px" y="0px"
	 viewBox="0 0 49.7 49.7" style="enable-background:new 0 0 49.7 49.7;" xml:space="preserve">
<g>
	<path d="M5.7,16.9c0-0.1,0-0.1,0-0.2v0c0-0.2,0.1-0.5,0.3-0.6l0.7-0.7l-3.9-4.2l-0.7,0.7c-1.7,1.6-2.5,4-2,6.3l0.2,1L6,17.9
		L5.7,16.9z M3.9,16.3l-1.8,0.4c0-0.9,0.3-1.9,0.8-2.6l1.2,1.3C4,15.7,3.9,16,3.9,16.3z"/>
	<path d="M13.7,11.4l-2.8-5L5.7,9.3l2.8,5L13.7,11.4z M10.2,9.1l0.9,1.5l-1.7,0.9l-0.9-1.5L10.2,9.1z"/>
	<path d="M21,7l-2.8-5L13,4.9l2.8,5L21,7z M17.6,4.7l0.9,1.5l-1.7,0.9l-0.9-1.5L17.6,4.7z"/>
	<path d="M23.5,5.8c0.2-0.1,0.5,0,0.7,0.1v0c0.1,0,0.1,0.1,0.1,0.1l0.7,0.7l3.9-4.2l-0.7-0.7c-1.7-1.6-4.2-2.2-6.4-1.5l-1,0.3
		l1.6,5.5L23.5,5.8z M26.3,2.7L25,4c-0.3-0.1-0.6-0.2-0.9-0.2L23.6,2C24.5,2,25.5,2.2,26.3,2.7z"/>
	<path d="M43.1,8.4H32.5l-2.1-3.5l-4.9,2.9l0.4,0.6h-2c-3.6,0-6.6,3-6.6,6.6v9.8H23V15c0-0.5,0.4-0.9,0.9-0.9h19.3
		c0.5,0,0.9,0.4,0.9,0.9v28.1c0,0.5-0.4,0.9-0.9,0.9H23.8c-0.5,0-0.9-0.4-0.9-0.9v-9.3h-5.3l1.2-1.7H26l-1.6,1.6l4,4.1l8.6-8.6
		l-8.6-8.6l-4,4l1.7,1.7h-8.8v13.3l-4.4,2.4l1.9,3.6c1.3,2.5,3.9,4,6.6,4h21.7c3.6,0,6.6-3,6.6-6.6V15C49.7,11.4,46.8,8.4,43.1,8.4z
		 M19.4,28.4H31l-3.7-3.7l1.2-1.2l5.7,5.7l-5.7,5.7l-1.2-1.2l3.6-3.6H19.4V28.4z M47.9,43.1c0,2.5-2.1,4.6-4.6,4.6H21.6
		c-2,0-3.9-1.1-4.9-2.9l-1-1.9l1.5-0.8l0.3,0.5l1.9-0.5v-6.3h1.7v7.3c0,1.6,1.3,2.9,2.9,2.9h19.3c1.6,0,2.9-1.3,2.9-2.9V15
		c0-1.6-1.3-2.9-2.9-2.9H24c-1.6,0-2.9,1.3-2.9,2.9v7.8h-1.7V15c0-2.5,2.1-4.6,4.6-4.6h5.5l-1.1-1.9l1.5-0.9l1.6,2.8h11.8
		c2.5,0,4.6,2.1,4.6,4.6V43.1z"/>
	<path d="M14.2,32.5l-5,2.7l2.8,5.2l5-2.7L14.2,32.5z M12,36.1l1.5-0.8l0.9,1.7l-1.5,0.8L12,36.1z"/>
	<path d="M6.7,18.8l-5,2.7l2.8,5.2l5-2.7L6.7,18.8z M4.5,22.3l1.5-0.8L7,23.2L5.4,24L4.5,22.3z"/>
	<path d="M10.5,25.7l-5,2.7l2.8,5.2l5-2.7L10.5,25.7z M8.3,29.2l1.5-0.8l0.9,1.7l-1.5,0.8L8.3,29.2z"/>
</g>
</svg>
