<svg id="_003-color-palette" data-name="003-color-palette" xmlns="http://www.w3.org/2000/svg" width="52.329" height="58" viewBox="0 0 52.329 58">
  <path id="Path_159" data-name="Path 159" d="M57.746,187.664a1.133,1.133,0,0,0,0,2.266h0a1.133,1.133,0,0,0,0-2.266Zm0,0" transform="translate(-50.2 -166.405)" fill="#d10022"/>
  <path id="Path_160" data-name="Path 160" d="M52.316,19.646A3.366,3.366,0,0,0,51.2,17.4l-.006-.005-.008-.008-.057-.049L40.215,8.129a3.441,3.441,0,0,0-.584-.4,3.392,3.392,0,0,0-4.191.8l-5.4,6.4L23.18,23.051l-2.122,2.513V22.423c0-.01,0-.021,0-.031v-19A3.392,3.392,0,0,0,17.67,0H3.388A3.392,3.392,0,0,0,0,3.388V45.46A10.543,10.543,0,0,0,10.145,55.983,10.453,10.453,0,0,0,16.328,58a10.612,10.612,0,0,0,1.07-.054,10.473,10.473,0,0,0,6.989-3.684l1.162-1.376.006-.007,6.857-8.121,6.857-8.122,6.857-8.122,5.4-6.4A3.369,3.369,0,0,0,52.316,19.646ZM2.266,34.154h11.54L9.465,39.295l-.019.023-.334.4-.813.963-.044.053-.009.011h0l-.012.015-.019.023-.023.027,0,0-.011.013-.007.008-.022.027-.021.026-.019.023-.025.031-.015.019,0,0-.005.007L8.038,41l-.01.013-.035.045,0,0a10.655,10.655,0,0,0-.942,1.457H2.266ZM38.054,9.6h.052l.064.006h.01l.014,0,.012,0,.012,0,.014,0,.011,0,.015,0,.01,0,.018,0,.007,0,.022.005h0a1.117,1.117,0,0,1,.435.227l10.912,9.214.022.019a1.125,1.125,0,0,1,.112,1.563l-4.672,5.533L32.5,15.526l4.672-5.533a1.114,1.114,0,0,1,.763-.395l.046,0h.073Zm-.7,12.993,6.314,5.331-5.4,6.391L25.642,23.648l5.4-6.391ZM20.79,29.394l.006-.007.006-.007,0,0,3.375-4L36.807,36.041l-5.4,6.39L18.784,31.77Zm-3.679,4.358,0-.006.007-.008,0,0,.2-.234,6.313,5.331,6.314,5.331-5.4,6.391L11.927,39.891Zm-.789-2.579-.6.715H2.266V23.524h.749a1.133,1.133,0,0,0,0-2.266H2.266V12.9H18.792v8.364H12.077a1.133,1.133,0,1,0,0,2.266h6.715v4.723ZM17.669,2.266a1.124,1.124,0,0,1,1.123,1.123v7.241H2.266V3.388A1.124,1.124,0,0,1,3.388,2.266ZM2.266,45.46v-.677H6.156a10.609,10.609,0,0,0,.957,7.768l.006.012.02.035.035.062h0c.09.16.185.318.284.473A8.277,8.277,0,0,1,2.266,45.46ZM17.171,55.692a8.225,8.225,0,0,1-5.942-1.73c-.057-.044-.113-.089-.17-.137l-.048-.041A8.3,8.3,0,0,1,8.79,44.111a8.2,8.2,0,0,1,.962-1.626l0,0c.028-.037.057-.075.086-.112l.006-.008.038-.048.005-.007.09-.11,0,0,.046-.056.437-.517L23.092,52.284l-.436.517A8.218,8.218,0,0,1,17.171,55.692Zm0,0" fill="#d10022"/>
  <path id="Path_161" data-name="Path 161" d="M96.452,412.6a3.413,3.413,0,1,0,3.413,3.414A3.417,3.417,0,0,0,96.452,412.6Zm0,4.561a1.148,1.148,0,1,1,1.148-1.147A1.149,1.149,0,0,1,96.452,417.159Zm0,0" transform="translate(-82.499 -365.858)" fill="#d10022"/>
</svg>
