<svg xmlns="http://www.w3.org/2000/svg" width="28.702" height="58" viewBox="0 0 28.702 58">
  <g id="_001-pencil-case" data-name="001-pencil-case" transform="translate(0.001)">
    <path id="Path_152" data-name="Path 152" d="M28.033,28a2.239,2.239,0,0,0-1.942-.632l-.64.1,2.773-13.546h0a9.158,9.158,0,0,0-.014-3.766c0-.019-.008-.039-.012-.058l-1.1-5.041a1.669,1.669,0,0,0-2.214-1.207l-.014.006-.013,0a1.665,1.665,0,0,0-.715.538c-.012.015-.023.03-.034.046L22.6,6.553l-1.49,2.09a9.19,9.19,0,0,0-1.528,3.507l-.819,4v-6.7a9.161,9.161,0,0,0-.793-3.741l-.342-.771L15.876.993a1.669,1.669,0,0,0-3.052,0L11.1,4.887l-.366.824a9.161,9.161,0,0,0-.793,3.741v6.7l-.819-4A9.186,9.186,0,0,0,7.591,8.643L5.475,5.676,4.594,4.441q-.038-.054-.081-.1A1.669,1.669,0,0,0,1.6,5.053L.5,10.094l-.013.059a9.165,9.165,0,0,0-.013,3.766L3.248,27.465l-.639-.1A2.262,2.262,0,0,0,.025,29.938l3.526,23.51a4.118,4.118,0,0,0,2.824,3.309,26.217,26.217,0,0,0,15.95,0,4.088,4.088,0,0,0,2.824-3.31l3.526-23.509A2.239,2.239,0,0,0,28.033,28Zm-5.08-18.04L23.7,8.913,25.169,6.85l.817,3.729.014.066q.037.175.064.356l-.171.047a3.423,3.423,0,0,1-3.04-.623l-.139-.111C22.791,10.194,22.87,10.074,22.953,9.958ZM21.8,12.6q.013-.062.027-.125a5.7,5.7,0,0,0,3.163.957,5.646,5.646,0,0,0,1.04-.1c-.008.042-.015.083-.024.124L23.067,27.821l-.173.023-.045.006-.138.018-.045.006-.171.022-.042.005-.132.016-.059.007-.14.017-.057.007-.144.017-.06.007-.125.014-.052.006-.166.019-.054.006-.119.013-.067.008-.139.015-.06.006-.139.014-.062.006-.121.012-.055.005-.163.016-.06.005-.12.012-.061.006-.162.015-.036,0-.144.012-.056,0-.133.011-.044,0-.171.014-.046,0-.133.01-.052,0-.173.013h-.02l-.158.012-.047,0-.156.011h-.006v-.811ZM16.06,7.027l-.158.081a3.424,3.424,0,0,1-3.1,0l-.158-.081c.05-.134.1-.266.161-.4a0,0,0,0,1,0,0L14.35,3.14,15.9,6.629l0,.011Q15.987,6.83,16.06,7.027ZM12.2,9.451c0-.042,0-.084,0-.126a5.7,5.7,0,0,0,4.291,0q0,.063,0,.126V27.214l-.238,1.162c-1.264.037-2.543.037-3.818,0L12.2,27.219V9.451ZM2.691,10.685a.01.01,0,0,0,0,0L2.7,10.65c0-.023.01-.047.015-.07L3.531,6.85l.677.949L5.747,9.958c.083.115.162.235.239.358l-.139.111a3.425,3.425,0,0,1-3.04.623L2.635,11C2.651,10.9,2.67,10.79,2.691,10.685ZM2.67,13.341a5.7,5.7,0,0,0,4.2-.861c.009.041.018.082.027.124L9.938,27.449v.805q-.611-.041-1.222-.094l-.075-.006-.089-.008-.175-.016H8.369c-.914-.084-1.828-.187-2.736-.309L2.694,13.465C2.686,13.423,2.678,13.382,2.67,13.341ZM26.435,29.6h0L22.909,53.111a1.839,1.839,0,0,1-1.27,1.488,23.958,23.958,0,0,1-14.578,0,1.853,1.853,0,0,1-1.27-1.488L2.262,29.6l1.727.267c.177.028.354.055.529.08h0c1.2.175,2.4.319,3.613.431l.043,0,.107.01.122.011.05,0,.183.016h0q1.191.1,2.381.161l.443.019.112,0q1.39.057,2.783.058c1.108,0,2.212-.027,3.305-.081h.023q.3-.015.608-.032.552-.032,1.105-.073l.521-.041h0q1.47-.121,2.936-.307.663-.084,1.323-.181h0c.175-.026.351-.052.523-.079l1.728-.273S26.435,29.6,26.435,29.6Zm0,0" transform="translate(0 0)" fill="#d10022"/>
    <path id="Path_153" data-name="Path 153" d="M180.768,285.977a1.133,1.133,0,0,0-1.283.959L177.8,298.6a1.133,1.133,0,1,0,2.242.324l1.686-11.667A1.132,1.132,0,0,0,180.768,285.977Zm0,0" transform="translate(-157.648 -253.571)" fill="#d10022"/>
    <path id="Path_154" data-name="Path 154" d="M173.813,420.895a1.133,1.133,0,0,0-1.133,1.132v0a1.133,1.133,0,1,0,1.133-1.135Zm0,0" transform="translate(-153.119 -373.215)" fill="#d10022"/>
  </g>
</svg>
