<svg id="_002-ruler" data-name="002-ruler" xmlns="http://www.w3.org/2000/svg" width="56.66" height="58.004" viewBox="0 0 56.66 58.004">
  <path id="Path_155" data-name="Path 155" d="M114.133,82.352c-9.576,0-17.368,7.4-17.368,16.487v4.224a1.133,1.133,0,0,0,1.133,1.133h32.469a1.133,1.133,0,0,0,1.133-1.133V98.838C131.5,89.748,123.71,82.352,114.133,82.352Zm15.1,19.577h-30.2V98.838c0-7.841,6.775-14.221,15.1-14.221s15.1,6.38,15.1,14.221v3.091Zm0,0" transform="translate(-85.803 -73.022)" fill="#d10022"/>
  <path id="Path_156" data-name="Path 156" d="M11.374,39.674H59.3A3.475,3.475,0,0,0,62.772,36.2V27.435a27.849,27.849,0,0,0-.232-3.6q.005-.056.005-.113a1.133,1.133,0,0,0-.08-.419A27.439,27.439,0,0,0,15.938,8.035,27.255,27.255,0,0,0,7.9,27.435V36.2A3.475,3.475,0,0,0,11.374,39.674ZM60.506,36.2A1.207,1.207,0,0,1,59.3,37.409H57.24V33.836a1.133,1.133,0,1,0-2.266,0v3.573H50.317v-2.07a1.133,1.133,0,1,0-2.266,0v2.07H43.393V33.836a1.133,1.133,0,1,0-2.266,0v3.573H36.47v-2.07a1.133,1.133,0,1,0-2.266,0v2.07H29.547V33.836a1.133,1.133,0,1,0-2.266,0v3.573H22.624v-2.07a1.133,1.133,0,1,0-2.266,0v2.07H15.7V33.836a1.133,1.133,0,1,0-2.266,0v3.573h-2.06A1.207,1.207,0,0,1,10.168,36.2V27.435a25.654,25.654,0,0,1,.129-2.576h2.835a1.133,1.133,0,0,0,0-2.266h-2.5a24.935,24.935,0,0,1,5.842-11.821l2.264,1.867a1.133,1.133,0,1,0,1.441-1.748L18.053,9.138A24.975,24.975,0,0,1,34.2,2.291V4.767a1.133,1.133,0,1,0,2.266,0V2.291A24.974,24.974,0,0,1,52.556,9.077l-2.2,1.814A1.133,1.133,0,1,0,51.8,12.639L54.142,10.7a24.942,24.942,0,0,1,5.9,11.888H57.575a1.133,1.133,0,1,0,0,2.266h2.8a25.654,25.654,0,0,1,.129,2.576Zm0,0" transform="translate(-7.007)" fill="#d10022"/>
  <path id="Path_157" data-name="Path 157" d="M56.66,395.146c0-.072,0-.142-.01-.213-.005-.055-.013-.109-.022-.163v0c0-.023-.008-.046-.013-.069l0-.017a2.126,2.126,0,0,0-.965-1.358l-.008-.005-.066-.038c-.031-.017-.062-.034-.094-.05L51.2,391.088a4.806,4.806,0,0,0-1.542-.468l-.078-.009-.118-.012q-.2-.017-.4-.017H7.885a2.294,2.294,0,0,0-2.2,1.665H2.853a2.853,2.853,0,1,0,0,5.706H5.595v2.859a3.53,3.53,0,0,0,3.526,3.526H21.407a1.133,1.133,0,1,0,0-2.266H9.121a1.262,1.262,0,0,1-1.26-1.26v-1.1h41.2a4.8,4.8,0,0,0,2.14-.506l4.273-2.141c.057-.028.112-.059.166-.092.032-.02.064-.041.095-.062l.031-.022A2.131,2.131,0,0,0,56.66,395.146Zm-6.472,2.033-.03.015-.009,0-.022.011-.008,0-.027.013h0l-.031.014-.006,0-.024.011-.01,0-.022.009-.009,0-.031.012-.006,0-.026.01-.01,0-.021.008-.012,0-.023.008-.014,0-.023.007-.014,0-.018.006-.014,0-.018.005-.014,0-.029.008-.015,0-.015,0-.017,0-.014,0-.017,0-.017,0-.028.007-.014,0-.019,0-.012,0-.019,0-.01,0-.045.008h0l-.022,0h-.009l-.022,0H49.41l-.073.009h-.005v-4.569l.018,0h.007l.033,0H49.4l.025,0,.011,0,.023,0,.011,0,.031.005h0l.028,0,.01,0,.023,0,.01,0,.028.006h0l.032.007.008,0,.024.006.01,0,.025.006.007,0,.033.009h0l.029.009.007,0,.027.008.006,0,.065.022h0l.03.011h0c.034.012.067.025.1.038h0c.056.023.111.048.165.075l4.056,2.033ZM2.266,395.1a.588.588,0,0,1,.587-.587H5.595v1.174H2.853A.587.587,0,0,1,2.266,395.1Zm5.595,2.321v-1.188H18.474a1.133,1.133,0,0,0,0-2.266H7.861v-1.1a.025.025,0,0,1,.024-.024h39.18v4.6H7.885A.025.025,0,0,1,7.861,397.42Zm0,0" transform="translate(0 -346.334)" fill="#d10022"/>
  <path id="Path_158" data-name="Path 158" d="M194.22,420.461h0a1.133,1.133,0,1,0,1.136,1.133A1.132,1.132,0,0,0,194.217,420.461Zm0,0" transform="translate(-171.212 -372.828)" fill="#d10022"/>
</svg>
